<svg version="1.1" viewBox="0.0 0.0 960.0 540.0" fill="none" stroke="none" stroke-linecap="square" stroke-miterlimit="10" xmlns:xlink="http://www.w3.org/1999/xlink" xmlns="http://www.w3.org/2000/svg"><clipPath id="g1f51f684b29_0_841.0"><path d="m0 0l960.0 0l0 540.0l-960.0 0l0 -540.0z" clip-rule="nonzero"/></clipPath><g clip-path="url(#g1f51f684b29_0_841.0)"><path fill="#000000" d="m0 0l960.0 0l0 540.0l-960.0 0z" fill-rule="evenodd"/><path fill="#000000" fill-opacity="0.0" d="m81.385826 234.4567l239.18109 0l0 71.08661l-239.18109 0z" fill-rule="evenodd"/><path fill="#ffffff" d="m107.15145 284.4167l-0.078125 -2.8125q-1.71875 1.6875 -3.484375 2.4375q-1.75 0.75 -3.6875 0.75q-1.78125 0 -3.0625 -0.453125q-1.265625 -0.46875 -2.09375 -1.265625q-0.8125 -0.796875 -1.203125 -1.875q-0.390625 -1.09375 -0.390625 -2.359375q0 -3.15625 2.34375 -4.921875q2.34375 -1.78125 6.921875 -1.78125l4.34375 0l0 -1.84375q0 -1.84375 -1.1875 -2.953125q-1.1875 -1.125 -3.625 -1.125q-1.765625 0 -3.484375 0.40625q-1.71875 0.390625 -3.5625 1.109375l0 -3.265625q0.6875 -0.25 1.53125 -0.484375q0.84375 -0.25 1.78125 -0.4375q0.9375 -0.1875 1.953125 -0.296875q1.03125 -0.109375 2.0625 -0.109375q1.90625 0 3.421875 0.421875q1.515625 0.40625 2.5625 1.265625q1.0625 0.84375 1.625 2.140625q0.5625 1.296875 0.5625 3.046875l0 14.40625l-3.25 0zm-0.390625 -9.515625l-4.609375 0q-1.34375 0 -2.328125 0.265625q-0.984375 0.265625 -1.609375 0.765625q-0.625 0.5 -0.921875 1.203125q-0.296875 0.703125 -0.296875 1.578125q0 0.59375 0.1875 1.15625q0.1875 0.546875 0.59375 0.984375q0.421875 0.421875 1.078125 0.671875q0.671875 0.25 1.640625 0.25q1.234375 0 2.84375 -0.765625q1.625 -0.765625 3.421875 -2.40625l0 -3.703125zm11.265106 -11.390625l3.3125 0l0.109375 3.84375q1.84375 -2.21875 3.640625 -3.21875q1.8125 -1.0 3.6406326 -1.0q3.25 0 4.921875 2.109375q1.6875 2.09375 1.5625 6.234375l-3.671875 0q0.0625 -2.75 -0.8125 -3.984375q-0.859375 -1.234375 -2.515625 -1.234375q-0.7343826 0 -1.4843826 0.265625q-0.734375 0.25 -1.515625 0.828125q-0.765625 0.5625 -1.640625 1.46875q-0.875 0.890625 -1.875 2.15625l0 13.4375l-3.671875 0l0 -20.90625zm23.452614 0l3.3125 0l0.109375 3.84375q1.84375 -2.21875 3.640625 -3.21875q1.8125 -1.0 3.640625 -1.0q3.25 0 4.921875 2.109375q1.6875 2.09375 1.5625 6.234375l-3.671875 0q0.0625 -2.75 -0.8125 -3.984375q-0.859375 -1.234375 -2.515625 -1.234375q-0.734375 0 -1.484375 0.265625q-0.734375 0.25 -1.515625 0.828125q-0.765625 0.5625 -1.640625 1.46875q-0.875 0.890625 -1.875 2.15625l0 13.4375l-3.671875 0l0 -20.90625zm36.03073 20.90625l-0.078125 -2.8125q-1.71875 1.6875 -3.484375 2.4375q-1.75 0.75 -3.6875 0.75q-1.78125 0 -3.0625 -0.453125q-1.265625 -0.46875 -2.09375 -1.265625q-0.8125 -0.796875 -1.203125 -1.875q-0.390625 -1.09375 -0.390625 -2.359375q0 -3.15625 2.34375 -4.921875q2.34375 -1.78125 6.921875 -1.78125l4.34375 0l0 -1.84375q0 -1.84375 -1.1875 -2.953125q-1.1875 -1.125 -3.625 -1.125q-1.765625 0 -3.484375 0.40625q-1.71875 0.390625 -3.5625 1.109375l0 -3.265625q0.6875 -0.25 1.53125 -0.484375q0.84375 -0.25 1.78125 -0.4375q0.9375 -0.1875 1.953125 -0.296875q1.03125 -0.109375 2.0625 -0.109375q1.90625 0 3.421875 0.421875q1.515625 0.40625 2.5625 1.265625q1.0625 0.84375 1.625 2.140625q0.5625 1.296875 0.5625 3.046875l0 14.40625l-3.25 0zm-0.390625 -9.515625l-4.609375 0q-1.34375 0 -2.328125 0.265625q-0.984375 0.265625 -1.609375 0.765625q-0.625 0.5 -0.921875 1.203125q-0.296875 0.703125 -0.296875 1.578125q0 0.59375 0.1875 1.15625q0.1875 0.546875 0.59375 0.984375q0.421875 0.421875 1.078125 0.671875q0.671875 0.25 1.640625 0.25q1.234375 0 2.84375 -0.765625q1.625 -0.765625 3.421875 -2.40625l0 -3.703125zm10.405731 -11.390625l3.234375 0l0.140625 3.375q0.921875 -1.09375 1.765625 -1.8125q0.859375 -0.71875 1.671875 -1.15625q0.828125 -0.4375 1.6875 -0.609375q0.859375 -0.171875 1.765625 -0.171875q3.234375 0 4.890625 1.90625q1.65625 1.90625 1.65625 5.734375l0 13.640625l-3.625 0l0 -13.34375q0 -2.46875 -0.921875 -3.640625q-0.90625 -1.171875 -2.71875 -1.171875q-0.671875 0 -1.3125 0.203125q-0.625 0.1875 -1.3125 0.6875q-0.6875 0.484375 -1.5 1.3125q-0.796875 0.828125 -1.796875 2.078125l0 13.875l-3.625 0l0 -20.90625zm38.515106 2.953125q0.578125 0.734375 0.90625 1.703125q0.328125 0.96875 0.328125 2.09375q0 1.625 -0.59375 2.96875q-0.59375 1.328125 -1.6875 2.296875q-1.078125 0.953125 -2.59375 1.484375q-1.5 0.53125 -3.3125 0.53125q-1.3125 0 -2.46875 -0.28125q-1.140625 -0.28125 -1.796875 -0.703125q-0.40625 0.59375 -0.671875 1.109375q-0.265625 0.515625 -0.265625 1.171875q0 0.78125 0.75 1.3125q0.765625 0.515625 2.015625 0.5625l5.5 0.203125q1.5625 0.046875 2.875 0.40625q1.328125 0.34375 2.265625 1.015625q0.953125 0.65625 1.484375 1.640625q0.53125 0.984375 0.53125 2.265625q0 1.40625 -0.609375 2.65625q-0.59375 1.25 -1.859375 2.1875q-1.25 0.953125 -3.1875 1.515625q-1.9375 0.5625 -4.609375 0.5625q-2.53125 0 -4.3125 -0.40625q-1.78125 -0.40625 -2.9375 -1.125q-1.140625 -0.71875 -1.671875 -1.71875q-0.515625 -0.984375 -0.515625 -2.171875q0 -1.515625 0.703125 -2.671875q0.71875 -1.140625 2.203125 -2.203125q-0.546875 -0.25 -0.953125 -0.625q-0.390625 -0.375 -0.640625 -0.8125q-0.25 -0.453125 -0.375 -0.953125q-0.125 -0.5 -0.125 -0.984375q0 -1.34375 0.640625 -2.46875q0.640625 -1.125 1.515625 -2.125q-0.40625 -0.484375 -0.703125 -0.9375q-0.296875 -0.453125 -0.515625 -0.984375q-0.21875 -0.53125 -0.34375 -1.140625q-0.109375 -0.625 -0.109375 -1.421875q0 -1.625 0.59375 -2.96875q0.59375 -1.34375 1.65625 -2.296875q1.078125 -0.953125 2.59375 -1.484375q1.515625 -0.53125 3.34375 -0.53125q0.765625 0 1.46875 0.109375q0.71875 0.09375 1.25 0.265625l7.59375 0l0 2.953125l-3.359375 0zm-12.578125 20.96875q0 1.484375 1.53125 2.15625q1.546875 0.6875 4.296875 0.6875q1.734375 0 2.90625 -0.3125q1.171875 -0.3125 1.890625 -0.828125q0.71875 -0.515625 1.03125 -1.171875q0.3125 -0.65625 0.3125 -1.34375q0 -1.265625 -1.046875 -1.875q-1.03125 -0.59375 -3.171875 -0.703125l-5.453125 -0.1875q-0.6875 0.453125 -1.140625 0.890625q-0.453125 0.4375 -0.703125 0.890625q-0.25 0.453125 -0.359375 0.890625q-0.09375 0.453125 -0.09375 0.90625zm1.109375 -17.09375q0 1.0 0.328125 1.84375q0.328125 0.828125 0.9375 1.40625q0.609375 0.578125 1.421875 0.90625q0.828125 0.3125 1.828125 0.3125q1.078125 0 1.921875 -0.359375q0.84375 -0.359375 1.40625 -0.984375q0.578125 -0.625 0.875 -1.4375q0.3125 -0.8125 0.3125 -1.6875q0 -1.0 -0.34375 -1.828125q-0.328125 -0.84375 -0.9375 -1.421875q-0.59375 -0.578125 -1.421875 -0.90625q-0.8125 -0.328125 -1.8125 -0.328125q-1.078125 0 -1.921875 0.375q-0.84375 0.375 -1.421875 1.0q-0.578125 0.609375 -0.875 1.421875q-0.296875 0.8125 -0.296875 1.6875zm37.53073 2.515625q0 0.78125 -0.03125 1.296875q-0.015625 0.515625 -0.0625 0.96875l-14.671875 0q0 3.21875 1.78125 4.9375q1.796875 1.71875 5.171875 1.71875q0.90625 0 1.828125 -0.078125q0.921875 -0.078125 1.765625 -0.203125q0.859375 -0.125 1.640625 -0.28125q0.78125 -0.15625 1.453125 -0.34375l0 2.984375q-1.484375 0.421875 -3.359375 0.671875q-1.859375 0.265625 -3.859375 0.265625q-2.671875 0 -4.609375 -0.71875q-1.9375 -0.734375 -3.1875 -2.125q-1.234375 -1.390625 -1.828125 -3.390625q-0.59375 -2.015625 -0.59375 -4.5625q0 -2.203125 0.625 -4.171875q0.640625 -1.96875 1.859375 -3.453125q1.21875 -1.484375 2.984375 -2.359375q1.78125 -0.875 4.03125 -0.875q2.1875 0 3.875 0.6875q1.6875 0.6875 2.84375 1.953125q1.15625 1.25 1.75 3.0625q0.59375 1.796875 0.59375 4.015625zm-3.78125 -0.515625q0.0625 -1.390625 -0.265625 -2.546875q-0.328125 -1.15625 -1.03125 -1.984375q-0.703125 -0.84375 -1.75 -1.3125q-1.03125 -0.46875 -2.40625 -0.46875q-1.1875 0 -2.171875 0.46875q-0.96875 0.453125 -1.6875 1.28125q-0.703125 0.828125 -1.140625 2.0q-0.4375 1.171875 -0.53125 2.5625l10.984375 0zm22.077606 20.828125q-9.59375 -8.890625 -9.59375 -19.65625q0 -2.53125 0.5 -5.03125q0.515625 -2.515625 1.65625 -5.03125q1.140625 -2.53125 3.0 -5.046875q1.859375 -2.515625 4.53125 -5.0l2.09375 2.140625q-8.078125 7.984375 -8.078125 17.6875q0 4.828125 2.03125 9.296875q2.046875 4.453125 6.046875 8.40625l-2.1875 2.234375zm15.218231 -39.765625q9.59375 8.890625 9.59375 19.796875q0 2.234375 -0.46875 4.65625q-0.453125 2.421875 -1.5625 4.953125q-1.09375 2.53125 -2.953125 5.125q-1.859375 2.609375 -4.703125 5.234375l-2.09375 -2.140625q4.0625 -4.03125 6.046875 -8.40625q2.0 -4.375 2.0 -9.15625q0 -9.921875 -8.046875 -17.828125l2.1875 -2.234375z" fill-rule="nonzero"/><path fill="#adadad" d="m385.29135 145.28346l55.275574 0l0 55.27559l-55.275574 0z" fill-rule="evenodd"/><path stroke="#ffffff" stroke-width="3.0" stroke-linejoin="round" stroke-linecap="butt" d="m385.29135 145.28346l55.275574 0l0 55.27559l-55.275574 0z" fill-rule="evenodd"/><path fill="#ffffff" d="m406.6761 179.84126l5.125 -13.359375l1.90625 0l5.46875 13.359375l-2.015625 0l-1.546875 -4.046875l-5.59375 0l-1.46875 4.046875l-1.875 0zm3.859375 -5.484375l4.53125 0l-1.40625 -3.703125q-0.625 -1.6875 -0.9375 -2.765625q-0.265625 1.28125 -0.71875 2.546875l-1.46875 3.921875z" fill-rule="nonzero"/><path fill="#adadad" d="m452.27036 145.28346l55.275574 0l0 55.27559l-55.275574 0z" fill-rule="evenodd"/><path stroke="#ffffff" stroke-width="3.0" stroke-linejoin="round" stroke-linecap="butt" d="m452.27036 145.28346l55.275574 0l0 55.27559l-55.275574 0z" fill-rule="evenodd"/><path fill="#ffffff" d="m475.04572 179.84126l0 -13.359375l5.015625 0q1.53125 0 2.453125 0.40625q0.921875 0.40625 1.4375 1.25q0.53125 0.84375 0.53125 1.765625q0 0.859375 -0.46875 1.625q-0.453125 0.75 -1.390625 1.203125q1.203125 0.359375 1.859375 1.21875q0.65625 0.859375 0.65625 2.015625q0 0.9375 -0.40625 1.75q-0.390625 0.796875 -0.984375 1.234375q-0.578125 0.4375 -1.453125 0.671875q-0.875 0.21875 -2.15625 0.21875l-5.09375 0zm1.78125 -7.75l2.875 0q1.1875 0 1.6875 -0.140625q0.671875 -0.203125 1.015625 -0.671875q0.34375 -0.46875 0.34375 -1.171875q0 -0.65625 -0.328125 -1.15625q-0.3125 -0.515625 -0.90625 -0.703125q-0.59375 -0.1875 -2.03125 -0.1875l-2.65625 0l0 4.03125zm0 6.171875l3.3125 0q0.859375 0 1.203125 -0.0625q0.609375 -0.109375 1.015625 -0.359375q0.421875 -0.265625 0.6875 -0.75q0.265625 -0.484375 0.265625 -1.125q0 -0.75 -0.390625 -1.296875q-0.375 -0.546875 -1.0625 -0.765625q-0.671875 -0.234375 -1.953125 -0.234375l-3.078125 0l0 4.59375z" fill-rule="nonzero"/><path fill="#009ee3" d="m385.29135 209.17061l55.275574 0l0 55.27559l-55.275574 0z" fill-rule="evenodd"/><path stroke="#ffffff" stroke-width="3.0" stroke-linejoin="round" stroke-linecap="butt" d="m385.29135 209.17061l55.275574 0l0 55.27559l-55.275574 0z" fill-rule="evenodd"/><path fill="#ffffff" d="m408.52252 240.19714l1.640625 -0.21875q0.28125 1.40625 0.953125 2.015625q0.6875 0.609375 1.65625 0.609375q1.15625 0 1.953125 -0.796875q0.796875 -0.796875 0.796875 -1.984375q0 -1.125 -0.734375 -1.859375q-0.734375 -0.734375 -1.875 -0.734375q-0.46875 0 -1.15625 0.171875l0.1875 -1.4375q0.15625 0.015625 0.265625 0.015625q1.046875 0 1.875 -0.546875q0.84375 -0.546875 0.84375 -1.671875q0 -0.90625 -0.609375 -1.5q-0.609375 -0.59375 -1.578125 -0.59375q-0.953125 0 -1.59375 0.609375q-0.640625 0.59375 -0.8125 1.796875l-1.640625 -0.296875q0.296875 -1.640625 1.359375 -2.546875q1.0625 -0.90625 2.65625 -0.90625q1.09375 0 2.0 0.46875q0.921875 0.46875 1.40625 1.28125q0.5 0.8125 0.5 1.71875q0 0.859375 -0.46875 1.578125q-0.46875 0.703125 -1.375 1.125q1.1875 0.28125 1.84375 1.140625q0.65625 0.859375 0.65625 2.15625q0 1.734375 -1.28125 2.953125q-1.265625 1.21875 -3.21875 1.21875q-1.765625 0 -2.921875 -1.046875q-1.15625 -1.046875 -1.328125 -2.71875z" fill-rule="nonzero"/><path fill="#8eddff" d="m385.29135 273.05774l55.275574 0l0 55.275604l-55.275574 0z" fill-rule="evenodd"/><path stroke="#ffffff" stroke-width="3.0" stroke-linejoin="round" stroke-linecap="butt" d="m385.29135 273.05774l55.275574 0l0 55.275604l-55.275574 0z" fill-rule="evenodd"/><path fill="#ffffff" d="m414.6944 307.61554l-1.640625 0l0 -10.453125q-0.59375 0.5625 -1.5625 1.140625q-0.953125 0.5625 -1.71875 0.84375l0 -1.59375q1.375 -0.640625 2.40625 -1.5625q1.03125 -0.921875 1.453125 -1.78125l1.0625 0l0 13.40625z" fill-rule="nonzero"/><path fill="#55cbff" d="m385.29135 339.44095l55.275574 0l0 55.275574l-55.275574 0z" fill-rule="evenodd"/><path stroke="#ffffff" stroke-width="3.0" stroke-linejoin="round" stroke-linecap="butt" d="m385.29135 339.44095l55.275574 0l0 55.275574l-55.275574 0z" fill-rule="evenodd"/><path fill="#ffffff" d="m417.1319 372.42062l0 1.578125l-8.828125 0q-0.015625 -0.59375 0.1875 -1.140625q0.34375 -0.90625 1.078125 -1.78125q0.75 -0.875 2.15625 -2.015625q2.171875 -1.78125 2.9375 -2.828125q0.765625 -1.046875 0.765625 -1.96875q0 -0.984375 -0.703125 -1.640625q-0.6875 -0.671875 -1.8125 -0.671875q-1.1875 0 -1.90625 0.71875q-0.703125 0.703125 -0.703125 1.953125l-1.6875 -0.171875q0.171875 -1.890625 1.296875 -2.875q1.140625 -0.984375 3.03125 -0.984375q1.921875 0 3.046875 1.0625q1.125 1.0625 1.125 2.640625q0 0.796875 -0.328125 1.578125q-0.328125 0.78125 -1.09375 1.640625q-0.75 0.84375 -2.53125 2.34375q-1.46875 1.234375 -1.890625 1.6875q-0.421875 0.4375 -0.6875 0.875l6.546875 0z" fill-rule="nonzero"/><path fill="#000000" fill-opacity="0.0" d="m452.27036 209.17061l55.275574 0l0 55.27559l-55.275574 0z" fill-rule="evenodd"/><path stroke="#ffffff" stroke-width="3.0" stroke-linejoin="round" stroke-linecap="butt" d="m452.27036 209.17061l55.275574 0l0 55.27559l-55.275574 0z" fill-rule="evenodd"/><path fill="#ffffff" d="m474.58514 243.7284l0 -1.640625l6.84375 -8.546875q0.71875 -0.921875 1.375 -1.59375l-7.453125 0l0 -1.578125l9.578125 0l0 1.578125l-7.5 9.265625l-0.8125 0.9375l8.53125 0l0 1.578125l-10.5625 0z" fill-rule="nonzero"/><path fill="#000000" fill-opacity="0.0" d="m452.27036 273.05774l55.275574 0l0 55.275604l-55.275574 0z" fill-rule="evenodd"/><path stroke="#ffffff" stroke-width="3.0" stroke-linejoin="round" stroke-linecap="butt" d="m452.27036 273.05774l55.275574 0l0 55.275604l-55.275574 0z" fill-rule="evenodd"/><path fill="#ffffff" d="m473.76447 307.61554l5.171875 -6.953125l-4.5625 -6.40625l2.109375 0l2.421875 3.4375q0.75 1.0625 1.078125 1.625q0.4375 -0.71875 1.046875 -1.515625l2.6875 -3.546875l1.921875 0l-4.6875 6.296875l5.0625 7.0625l-2.1875 0l-3.359375 -4.765625q-0.28125 -0.40625 -0.59375 -0.890625q-0.4375 0.734375 -0.625 1.0l-3.359375 4.65625l-2.125 0z" fill-rule="nonzero"/><path fill="#000000" fill-opacity="0.0" d="m452.27036 339.44095l55.275574 0l0 55.275574l-55.275574 0z" fill-rule="evenodd"/><path stroke="#ffffff" stroke-width="3.0" stroke-linejoin="round" stroke-linecap="butt" d="m452.27036 339.44095l55.275574 0l0 55.275574l-55.275574 0z" fill-rule="evenodd"/><path fill="#ffffff" d="m478.88947 373.99875l0 -5.65625l-5.15625 -7.703125l2.15625 0l2.640625 4.03125q0.71875 1.125 1.34375 2.265625q0.609375 -1.046875 1.46875 -2.359375l2.578125 -3.9375l2.0625 0l-5.328125 7.703125l0 5.65625l-1.765625 0z" fill-rule="nonzero"/><path fill="#000000" fill-opacity="0.0" d="m507.54593 236.8084c40.97177 0 61.45932 32.56694 81.94357 65.133865c20.484253 32.566925 40.96521 65.13385 81.93042 65.13385" fill-rule="evenodd"/><path stroke="#ffffff" stroke-width="3.0" stroke-linejoin="round" stroke-linecap="butt" d="m507.54593 236.8084c40.97177 0 61.45932 32.56694 81.94357 65.133865c10.242126 16.283447 20.48346 32.566925 33.28485 44.77951c6.400696 6.1063232 13.441467 11.194885 21.442322 14.756897c2.0002441 0.8905029 4.060486 1.6856079 6.18573 2.3773499c0.53131104 0.17288208 1.0666504 0.339386 1.6062012 0.49926758c0.2697754 0.079956055 0.5405884 0.15823364 0.8123779 0.2348938l0.7441406 0.20443726" fill-rule="evenodd"/><path fill="#ffffff" stroke="#ffffff" stroke-width="3.0" stroke-linecap="butt" d="m652.9371 369.70984l14.132568 -3.1896057l-12.876465 -6.640869z" fill-rule="evenodd"/><path fill="#adadad" d="m671.43304 145.28346l55.275635 0l0 55.27559l-55.275635 0z" fill-rule="evenodd"/><path stroke="#ffffff" stroke-width="3.0" stroke-linejoin="round" stroke-linecap="butt" d="m671.43304 145.28346l55.275635 0l0 55.27559l-55.275635 0z" fill-rule="evenodd"/><path fill="#ffffff" d="m692.8178 179.84126l5.125 -13.359375l1.90625 0l5.46875 13.359375l-2.015625 0l-1.546875 -4.046875l-5.59375 0l-1.46875 4.046875l-1.875 0zm3.859375 -5.484375l4.53125 0l-1.40625 -3.703125q-0.625 -1.6875 -0.9375 -2.765625q-0.265625 1.28125 -0.71875 2.546875l-1.46875 3.921875z" fill-rule="nonzero"/><path fill="#adadad" d="m738.41205 145.28346l55.275635 0l0 55.27559l-55.275635 0z" fill-rule="evenodd"/><path stroke="#ffffff" stroke-width="3.0" stroke-linejoin="round" stroke-linecap="butt" d="m738.41205 145.28346l55.275635 0l0 55.27559l-55.275635 0z" fill-rule="evenodd"/><path fill="#ffffff" d="m761.18744 179.84126l0 -13.359375l5.015625 0q1.53125 0 2.453125 0.40625q0.921875 0.40625 1.4375 1.25q0.53125 0.84375 0.53125 1.765625q0 0.859375 -0.46875 1.625q-0.453125 0.75 -1.390625 1.203125q1.203125 0.359375 1.859375 1.21875q0.65625 0.859375 0.65625 2.015625q0 0.9375 -0.40625 1.75q-0.390625 0.796875 -0.984375 1.234375q-0.578125 0.4375 -1.453125 0.671875q-0.875 0.21875 -2.15625 0.21875l-5.09375 0zm1.78125 -7.75l2.875 0q1.1875 0 1.6875 -0.140625q0.671875 -0.203125 1.015625 -0.671875q0.34375 -0.46875 0.34375 -1.171875q0 -0.65625 -0.328125 -1.15625q-0.3125 -0.515625 -0.90625 -0.703125q-0.59375 -0.1875 -2.03125 -0.1875l-2.65625 0l0 4.03125zm0 6.171875l3.3125 0q0.859375 0 1.203125 -0.0625q0.609375 -0.109375 1.015625 -0.359375q0.421875 -0.265625 0.6875 -0.75q0.265625 -0.484375 0.265625 -1.125q0 -0.75 -0.390625 -1.296875q-0.375 -0.546875 -1.0625 -0.765625q-0.671875 -0.234375 -1.953125 -0.234375l-3.078125 0l0 4.59375z" fill-rule="nonzero"/><path fill="#8eddff" d="m671.43304 209.17061l55.275635 0l0 55.27559l-55.275635 0z" fill-rule="evenodd"/><path stroke="#ffffff" stroke-width="3.0" stroke-linejoin="round" stroke-linecap="butt" d="m671.43304 209.17061l55.275635 0l0 55.27559l-55.275635 0z" fill-rule="evenodd"/><path fill="#ffffff" d="m700.8361 243.7284l-1.640625 0l0 -10.453125q-0.59375 0.5625 -1.5625 1.140625q-0.953125 0.5625 -1.71875 0.84375l0 -1.59375q1.375 -0.640625 2.40625 -1.5625q1.03125 -0.921875 1.453125 -1.78125l1.0625 0l0 13.40625z" fill-rule="nonzero"/><path fill="#55cbff" d="m671.43304 273.05774l55.275635 0l0 55.275604l-55.275635 0z" fill-rule="evenodd"/><path stroke="#ffffff" stroke-width="3.0" stroke-linejoin="round" stroke-linecap="butt" d="m671.43304 273.05774l55.275635 0l0 55.275604l-55.275635 0z" fill-rule="evenodd"/><path fill="#ffffff" d="m703.2736 306.0374l0 1.578125l-8.828125 0q-0.015625 -0.59375 0.1875 -1.140625q0.34375 -0.90625 1.078125 -1.78125q0.75 -0.875 2.15625 -2.015625q2.171875 -1.78125 2.9375 -2.828125q0.765625 -1.046875 0.765625 -1.96875q0 -0.984375 -0.703125 -1.640625q-0.6875 -0.671875 -1.8125 -0.671875q-1.1875 0 -1.90625 0.71875q-0.703125 0.703125 -0.703125 1.953125l-1.6875 -0.171875q0.171875 -1.890625 1.296875 -2.875q1.140625 -0.984375 3.03125 -0.984375q1.921875 0 3.046875 1.0625q1.125 1.0625 1.125 2.640625q0 0.796875 -0.328125 1.578125q-0.328125 0.78125 -1.09375 1.640625q-0.75 0.84375 -2.53125 2.34375q-1.46875 1.234375 -1.890625 1.6875q-0.421875 0.4375 -0.6875 0.875l6.546875 0z" fill-rule="nonzero"/><path fill="#009ee3" d="m671.43304 339.44095l55.275635 0l0 55.275574l-55.275635 0z" fill-rule="evenodd"/><path stroke="#ffffff" stroke-width="3.0" stroke-linejoin="round" stroke-linecap="butt" d="m671.43304 339.44095l55.275635 0l0 55.275574l-55.275635 0z" fill-rule="evenodd"/><path fill="#ffffff" d="m694.66425 370.4675l1.640625 -0.21875q0.28125 1.40625 0.953125 2.015625q0.6875 0.609375 1.65625 0.609375q1.15625 0 1.953125 -0.796875q0.796875 -0.796875 0.796875 -1.984375q0 -1.125 -0.734375 -1.859375q-0.734375 -0.734375 -1.875 -0.734375q-0.46875 0 -1.15625 0.171875l0.1875 -1.4375q0.15625 0.015625 0.265625 0.015625q1.046875 0 1.875 -0.546875q0.84375 -0.546875 0.84375 -1.671875q0 -0.90625 -0.609375 -1.5q-0.609375 -0.59375 -1.578125 -0.59375q-0.953125 0 -1.59375 0.609375q-0.640625 0.59375 -0.8125 1.796875l-1.640625 -0.296875q0.296875 -1.640625 1.359375 -2.546875q1.0625 -0.90625 2.65625 -0.90625q1.09375 0 2.0 0.46875q0.921875 0.46875 1.40625 1.28125q0.5 0.8125 0.5 1.71875q0 0.859375 -0.46875 1.578125q-0.46875 0.703125 -1.375 1.125q1.1875 0.28125 1.84375 1.140625q0.65625 0.859375 0.65625 2.15625q0 1.734375 -1.28125 2.953125q-1.265625 1.21875 -3.21875 1.21875q-1.765625 0 -2.921875 -1.046875q-1.15625 -1.046875 -1.328125 -2.71875z" fill-rule="nonzero"/><path fill="#000000" fill-opacity="0.0" d="m738.41205 209.17061l55.275635 0l0 55.27559l-55.275635 0z" fill-rule="evenodd"/><path stroke="#ffffff" stroke-width="3.0" stroke-linejoin="round" stroke-linecap="butt" d="m738.41205 209.17061l55.275635 0l0 55.27559l-55.275635 0z" fill-rule="evenodd"/><path fill="#ffffff" d="m759.9062 243.7284l5.171875 -6.953125l-4.5625 -6.40625l2.109375 0l2.421875 3.4375q0.75 1.0625 1.078125 1.625q0.4375 -0.71875 1.046875 -1.515625l2.6875 -3.546875l1.921875 0l-4.6875 6.296875l5.0625 7.0625l-2.1875 0l-3.359375 -4.765625q-0.28125 -0.40625 -0.59375 -0.890625q-0.4375 0.734375 -0.625 1.0l-3.359375 4.65625l-2.125 0z" fill-rule="nonzero"/><path fill="#000000" fill-opacity="0.0" d="m738.41205 273.05774l55.275635 0l0 55.275604l-55.275635 0z" fill-rule="evenodd"/><path stroke="#ffffff" stroke-width="3.0" stroke-linejoin="round" stroke-linecap="butt" d="m738.41205 273.05774l55.275635 0l0 55.275604l-55.275635 0z" fill-rule="evenodd"/><path fill="#ffffff" d="m765.0312 307.61554l0 -5.65625l-5.15625 -7.703125l2.15625 0l2.640625 4.03125q0.71875 1.125 1.34375 2.265625q0.609375 -1.046875 1.46875 -2.359375l2.578125 -3.9375l2.0625 0l-5.328125 7.703125l0 5.65625l-1.765625 0z" fill-rule="nonzero"/><path fill="#000000" fill-opacity="0.0" d="m738.41205 339.44095l55.275635 0l0 55.275574l-55.275635 0z" fill-rule="evenodd"/><path stroke="#ffffff" stroke-width="3.0" stroke-linejoin="round" stroke-linecap="butt" d="m738.41205 339.44095l55.275635 0l0 55.275574l-55.275635 0z" fill-rule="evenodd"/><path fill="#ffffff" d="m760.72687 373.99875l0 -1.640625l6.84375 -8.546875q0.71875 -0.921875 1.375 -1.59375l-7.453125 0l0 -1.578125l9.578125 0l0 1.578125l-7.5 9.265625l-0.8125 0.9375l8.53125 0l0 1.578125l-10.5625 0z" fill-rule="nonzero"/><path fill="#000000" fill-opacity="0.0" d="m507.54593 300.69553c40.97177 0 61.45932 -15.968506 81.94357 -31.936981c20.484253 -15.968521 40.96521 -31.937027 81.93042 -31.937027" fill-rule="evenodd"/><path stroke="#ffffff" stroke-width="3.0" stroke-linejoin="round" stroke-linecap="butt" d="m507.54593 300.69553c40.97177 0 61.45932 -15.968506 81.94357 -31.936981c10.242126 -7.984253 20.48346 -15.968521 33.28485 -21.95671c6.400696 -2.9940948 13.441467 -5.4891663 21.442322 -7.235718c2.0002441 -0.4366455 4.060486 -0.8264923 6.18573 -1.1656647c0.53131104 -0.08480835 1.0666504 -0.16642761 1.6062012 -0.24484253c0.2697754 -0.03918457 0.5405884 -0.07759094 0.8123779 -0.11515808l0.6347046 -0.085494995" fill-rule="evenodd"/><path fill="#ffffff" stroke="#ffffff" stroke-width="3.0" stroke-linecap="butt" d="m653.7677 242.90033l13.275269 -5.802643l-13.899292 -4.088089z" fill-rule="evenodd"/><path fill="#000000" fill-opacity="0.0" d="m507.54593 367.07874c40.97177 0 61.45932 -16.59842 81.94357 -33.19684c20.484253 -16.59842 40.96521 -33.19687 81.93042 -33.19687" fill-rule="evenodd"/><path stroke="#ffffff" stroke-width="3.0" stroke-linejoin="round" stroke-linecap="butt" d="m507.54593 367.07874c40.97177 0 61.45932 -16.59842 81.94357 -33.19684c10.242126 -8.299225 20.48346 -16.59842 33.28485 -22.822845c6.400696 -3.1122131 13.441467 -5.705719 21.442322 -7.5211487c2.0002441 -0.45385742 4.060486 -0.85910034 6.18573 -1.2116699c0.53131104 -0.088134766 1.0666504 -0.17297363 1.6062012 -0.25445557c0.2697754 -0.040740967 0.5405884 -0.08065796 0.8123779 -0.11972046l0.63757324 -0.089263916" fill-rule="evenodd"/><path fill="#ffffff" stroke="#ffffff" stroke-width="3.0" stroke-linecap="butt" d="m653.7827 306.80737l13.260925 -5.835388l-13.909363 -4.053772z" fill-rule="evenodd"/></g></svg>
