<svg version="1.1" viewBox="0.0 0.0 960.0 540.0" fill="none" stroke="none" stroke-linecap="square" stroke-miterlimit="10" xmlns:xlink="http://www.w3.org/1999/xlink" xmlns="http://www.w3.org/2000/svg"><clipPath id="g1f51f684b29_0_1202.0"><path d="m0 0l960.0 0l0 540.0l-960.0 0l0 -540.0z" clip-rule="nonzero"/></clipPath><g clip-path="url(#g1f51f684b29_0_1202.0)"><path fill="#000000" d="m0 0l960.0 0l0 540.0l-960.0 0z" fill-rule="evenodd"/><path fill="#000000" fill-opacity="0.0" d="m889.4969 489.57657l57.606323 0l0 41.322845l-57.606323 0z" fill-rule="evenodd"/><path fill="#adadad" d="m920.83453 515.03796l-1.171875 0l0 -7.4687195q-0.421875 0.40625 -1.109375 0.8125q-0.6875 0.40625 -1.234375 0.609375l0 -1.140625q0.984375 -0.453125 1.71875 -1.109375q0.734375 -0.671875 1.03125 -1.28125l0.765625 0l0 9.5780945zm9.068726 -7.2030945l-1.15625 0.09375q-0.15625 -0.6875 -0.4375 -1.0q-0.484375 -0.5 -1.171875 -0.5q-0.5625 0 -0.984375 0.3125q-0.5625 0.390625 -0.890625 1.171875q-0.3125 0.765625 -0.3125 2.203125q0.421875 -0.640625 1.03125 -0.953125q0.609375 -0.3125 1.28125 -0.3125q1.171875 0 1.984375 0.859375q0.828125 0.859375 0.828125 2.234375q0 0.8905945 -0.390625 1.6718445q-0.375 0.765625 -1.0625 1.171875q-0.671875 0.40625 -1.53125 0.40625q-1.46875 0 -2.390625 -1.0625q-0.921875 -1.078125 -0.921875 -3.5624695q0 -2.765625 1.015625 -4.015625q0.90625 -1.09375 2.40625 -1.09375q1.125 0 1.84375 0.640625q0.71875 0.625 0.859375 1.734375zm-4.78125 4.109375q0 0.6093445 0.25 1.1718445q0.265625 0.546875 0.71875 0.84375q0.46875 0.28125 0.984375 0.28125q0.734375 0 1.265625 -0.59375q0.546875 -0.609375 0.546875 -1.640625q0 -0.9843445 -0.53125 -1.5468445q-0.53125 -0.578125 -1.328125 -0.578125q-0.796875 0 -1.359375 0.578125q-0.546875 0.5625 -0.546875 1.484375zm6.1937256 -5.203125l0 -1.125l6.1875 0l0 0.921875q-0.921875 0.96875 -1.8125 2.578125q-0.890625 1.59375 -1.375 3.2968445q-0.359375 1.203125 -0.453125 2.625l-1.203125 0q0.015625 -1.125 0.4375 -2.71875q0.421875 -1.5937195 1.203125 -3.0780945q0.796875 -1.484375 1.6875 -2.5l-4.671875 0z" fill-rule="nonzero"/><path fill="#000000" fill-opacity="0.0" d="m81.385826 234.4567l286.51968 0l0 71.08661l-286.51968 0z" fill-rule="evenodd"/><path fill="#ffffff" d="m110.27645 278.71356q0 1.09375 -0.375 1.96875q-0.375 0.875 -1.03125 1.5625q-0.640625 0.671875 -1.5 1.15625q-0.84375 0.46875 -1.8125 0.78125q-0.96875 0.3125 -2.0 0.453125q-1.015625 0.15625 -1.984375 0.15625q-2.125 0 -3.90625 -0.1875q-1.78125 -0.1875 -3.484375 -0.609375l0 -3.328125q1.828125 0.515625 3.640625 0.796875q1.8125 0.265625 3.59375 0.265625q2.609375 0 3.859375 -0.703125q1.25 -0.71875 1.25 -2.03125q0 -0.5625 -0.203125 -1.0q-0.1875 -0.453125 -0.71875 -0.859375q-0.515625 -0.40625 -1.609375 -0.84375q-1.09375 -0.4375 -2.984375 -1.0q-1.421875 -0.421875 -2.625 -0.953125q-1.1875 -0.53125 -2.0625 -1.25q-0.875 -0.734375 -1.375 -1.703125q-0.5 -0.984375 -0.5 -2.3125q0 -0.875 0.40625 -1.921875q0.40625 -1.046875 1.375 -1.9375q0.984375 -0.890625 2.65625 -1.484375q1.671875 -0.59375 4.15625 -0.59375q1.234375 0 2.734375 0.140625q1.5 0.125 3.125 0.453125l0 3.234375q-1.703125 -0.421875 -3.234375 -0.609375q-1.53125 -0.203125 -2.65625 -0.203125q-1.359375 0 -2.28125 0.21875q-0.921875 0.203125 -1.5 0.5625q-0.578125 0.359375 -0.828125 0.859375q-0.25 0.484375 -0.25 1.046875q0 0.5625 0.21875 1.03125q0.21875 0.453125 0.8125 0.875q0.59375 0.421875 1.65625 0.859375q1.0625 0.421875 2.765625 0.921875q1.859375 0.546875 3.125 1.140625q1.28125 0.578125 2.0625 1.3125q0.796875 0.734375 1.140625 1.65625q0.34375 0.90625 0.34375 2.078125zm23.702614 5.703125l-3.25 0l-0.125 -3.375q-0.9375 1.078125 -1.78125 1.796875q-0.8437576 0.71875 -1.6875076 1.15625q-0.828125 0.4375 -1.671875 0.609375q-0.84375 0.1875 -1.765625 0.1875q-3.234375 0 -4.890625 -1.890625q-1.640625 -1.90625 -1.640625 -5.734375l0 -13.65625l3.625 0l0 13.359375q0 4.8125 3.625 4.8125q0.671875 0 1.296875 -0.1875q0.640625 -0.203125 1.328125 -0.6875q0.703125 -0.5 1.5000076 -1.328125q0.8125 -0.828125 1.8125 -2.109375l0 -13.859375l3.625 0l0 20.90625zm21.561981 0l0 -15.015625q0 -0.984375 -0.078125 -1.609375q-0.078125 -0.625 -0.234375 -0.984375q-0.15625 -0.359375 -0.390625 -0.5q-0.234375 -0.15625 -0.59375 -0.15625q-0.421875 0 -0.78125 0.25q-0.34375 0.25 -0.75 0.8125q-0.40625 0.5625 -0.90625 1.5q-0.484375 0.921875 -1.140625 2.265625l0 13.4375l-3.3125 0l0 -14.625q0 -1.140625 -0.078125 -1.84375q-0.0625 -0.71875 -0.21875 -1.109375q-0.15625 -0.390625 -0.40625 -0.53125q-0.25 -0.15625 -0.609375 -0.15625q-0.375 0 -0.71875 0.21875q-0.328125 0.203125 -0.734375 0.75q-0.40625 0.53125 -0.90625 1.46875q-0.5 0.9375 -1.1875 2.390625l0 13.4375l-3.328125 0l0 -20.90625l2.765625 0l0.171875 3.96875q0.546875 -1.1875 1.046875 -2.015625q0.515625 -0.828125 1.046875 -1.34375q0.546875 -0.515625 1.15625 -0.75q0.625 -0.234375 1.375 -0.234375q1.6875 0 2.5625 1.109375q0.875 1.09375 0.875 3.40625q0.5 -1.078125 0.96875 -1.921875q0.484375 -0.84375 1.03125 -1.421875q0.5625 -0.578125 1.21875 -0.875q0.671875 -0.296875 1.546875 -0.296875q3.9375 0 3.9375 6.0625l0 15.21875l-3.328125 0zm23.452606 0l0 -15.015625q0 -0.984375 -0.078125 -1.609375q-0.078125 -0.625 -0.234375 -0.984375q-0.15625 -0.359375 -0.390625 -0.5q-0.234375 -0.15625 -0.59375 -0.15625q-0.421875 0 -0.78125 0.25q-0.34375 0.25 -0.75 0.8125q-0.40625 0.5625 -0.90625 1.5q-0.484375 0.921875 -1.140625 2.265625l0 13.4375l-3.3125 0l0 -14.625q0 -1.140625 -0.078125 -1.84375q-0.0625 -0.71875 -0.21875 -1.109375q-0.15625 -0.390625 -0.40625 -0.53125q-0.25 -0.15625 -0.609375 -0.15625q-0.375 0 -0.71875 0.21875q-0.328125 0.203125 -0.734375 0.75q-0.40625 0.53125 -0.90625 1.46875q-0.5 0.9375 -1.1875 2.390625l0 13.4375l-3.328125 0l0 -20.90625l2.765625 0l0.171875 3.96875q0.546875 -1.1875 1.046875 -2.015625q0.515625 -0.828125 1.046875 -1.34375q0.546875 -0.515625 1.15625 -0.75q0.625 -0.234375 1.375 -0.234375q1.6875 0 2.5625 1.109375q0.875 1.09375 0.875 3.40625q0.5 -1.078125 0.96875 -1.921875q0.484375 -0.84375 1.03125 -1.421875q0.5625 -0.578125 1.21875 -0.875q0.671875 -0.296875 1.546875 -0.296875q3.9375 0 3.9375 6.0625l0 15.21875l-3.328125 0zm21.968231 0l-0.078125 -2.8125q-1.71875 1.6875 -3.484375 2.4375q-1.75 0.75 -3.6875 0.75q-1.78125 0 -3.0625 -0.453125q-1.265625 -0.46875 -2.09375 -1.265625q-0.8125 -0.796875 -1.203125 -1.875q-0.390625 -1.09375 -0.390625 -2.359375q0 -3.15625 2.34375 -4.921875q2.34375 -1.78125 6.921875 -1.78125l4.34375 0l0 -1.84375q0 -1.84375 -1.1875 -2.953125q-1.1875 -1.125 -3.625 -1.125q-1.765625 0 -3.484375 0.40625q-1.71875 0.390625 -3.5625 1.109375l0 -3.265625q0.6875 -0.25 1.53125 -0.484375q0.84375 -0.25 1.78125 -0.4375q0.9375 -0.1875 1.953125 -0.296875q1.03125 -0.109375 2.0625 -0.109375q1.90625 0 3.421875 0.421875q1.515625 0.40625 2.5625 1.265625q1.0625 0.84375 1.625 2.140625q0.5625 1.296875 0.5625 3.046875l0 14.40625l-3.25 0zm-0.390625 -9.515625l-4.609375 0q-1.34375 0 -2.328125 0.265625q-0.984375 0.265625 -1.609375 0.765625q-0.625 0.5 -0.921875 1.203125q-0.296875 0.703125 -0.296875 1.578125q0 0.59375 0.1875 1.15625q0.1875 0.546875 0.59375 0.984375q0.421875 0.421875 1.078125 0.671875q0.671875 0.25 1.640625 0.25q1.234375 0 2.84375 -0.765625q1.625 -0.765625 3.421875 -2.40625l0 -3.703125zm11.265106 -11.390625l3.3125 0l0.109375 3.84375q1.84375 -2.21875 3.640625 -3.21875q1.8125 -1.0 3.640625 -1.0q3.25 0 4.921875 2.109375q1.6875 2.09375 1.5625 6.234375l-3.671875 0q0.0625 -2.75 -0.8125 -3.984375q-0.859375 -1.234375 -2.515625 -1.234375q-0.734375 0 -1.484375 0.265625q-0.734375 0.25 -1.515625 0.828125q-0.765625 0.5625 -1.640625 1.46875q-0.875 0.890625 -1.875 2.15625l0 13.4375l-3.671875 0l0 -20.90625zm29.718231 3.0l-6.1875 0l0 -3.0l9.859375 0l0 17.890625l6.21875 0l0 3.015625l-16.765625 0l0 -3.015625l6.875 0l0 -14.890625zm1.265625 -11.78125q0.609375 0 1.125 0.21875q0.53125 0.21875 0.90625 0.625q0.390625 0.390625 0.609375 0.90625q0.21875 0.5 0.21875 1.109375q0 0.578125 -0.21875 1.109375q-0.21875 0.515625 -0.609375 0.921875q-0.375 0.390625 -0.90625 0.609375q-0.515625 0.21875 -1.125 0.21875q-0.59375 0 -1.125 -0.21875q-0.515625 -0.21875 -0.90625 -0.609375q-0.375 -0.40625 -0.59375 -0.921875q-0.21875 -0.53125 -0.21875 -1.109375q0 -0.609375 0.21875 -1.109375q0.21875 -0.515625 0.59375 -0.90625q0.390625 -0.40625 0.90625 -0.625q0.53125 -0.21875 1.125 -0.21875zm31.999481 29.6875l-16.84375 0l0 -2.609375l11.796875 -15.265625l-11.515625 0l0 -3.03125l15.875 0l0 2.828125l-11.59375 15.015625l12.28125 0l0 3.0625zm24.186981 -11.5625q0 0.78125 -0.03125 1.296875q-0.015625 0.515625 -0.0625 0.96875l-14.671875 0q0 3.21875 1.78125 4.9375q1.796875 1.71875 5.171875 1.71875q0.90625 0 1.828125 -0.078125q0.921875 -0.078125 1.765625 -0.203125q0.859375 -0.125 1.640625 -0.28125q0.78125 -0.15625 1.453125 -0.34375l0 2.984375q-1.484375 0.421875 -3.359375 0.671875q-1.859375 0.265625 -3.859375 0.265625q-2.671875 0 -4.609375 -0.71875q-1.9375 -0.734375 -3.1875 -2.125q-1.234375 -1.390625 -1.828125 -3.390625q-0.59375 -2.015625 -0.59375 -4.5625q0 -2.203125 0.625 -4.171875q0.640625 -1.96875 1.859375 -3.453125q1.21875 -1.484375 2.984375 -2.359375q1.78125 -0.875 4.03125 -0.875q2.1875 0 3.875 0.6875q1.6875 0.6875 2.84375 1.953125q1.15625 1.25 1.75 3.0625q0.59375 1.796875 0.59375 4.015625zm-3.78125 -0.515625q0.0625 -1.390625 -0.265625 -2.546875q-0.328125 -1.15625 -1.03125 -1.984375q-0.703125 -0.84375 -1.75 -1.3125q-1.03125 -0.46875 -2.40625 -0.46875q-1.1875 0 -2.171875 0.46875q-0.96875 0.453125 -1.6875 1.28125q-0.703125 0.828125 -1.140625 2.0q-0.4375 1.171875 -0.53125 2.5625l10.984375 0zm22.077606 20.828125q-9.59375 -8.890625 -9.59375 -19.65625q0 -2.53125 0.5 -5.03125q0.515625 -2.515625 1.65625 -5.03125q1.140625 -2.53125 3.0 -5.046875q1.859375 -2.515625 4.53125 -5.0l2.09375 2.140625q-8.078125 7.984375 -8.078125 17.6875q0 4.828125 2.03125 9.296875q2.046875 4.453125 6.046875 8.40625l-2.1875 2.234375zm15.218231 -39.765625q9.59375 8.890625 9.59375 19.796875q0 2.234375 -0.46875 4.65625q-0.453125 2.421875 -1.5625 4.953125q-1.09375 2.53125 -2.953125 5.125q-1.859375 2.609375 -4.703125 5.234375l-2.09375 -2.140625q4.0625 -4.03125 6.046875 -8.40625q2.0 -4.375 2.0 -9.15625q0 -9.921875 -8.046875 -17.828125l2.1875 -2.234375z" fill-rule="nonzero"/><path fill="#adadad" d="m449.25986 145.28346l55.275574 0l0 55.27559l-55.275574 0z" fill-rule="evenodd"/><path stroke="#ffffff" stroke-width="3.0" stroke-linejoin="round" stroke-linecap="butt" d="m449.25986 145.28346l55.275574 0l0 55.27559l-55.275574 0z" fill-rule="evenodd"/><path fill="#ffffff" d="m470.6446 179.84126l5.125 -13.359375l1.90625 0l5.46875 13.359375l-2.015625 0l-1.546875 -4.046875l-5.59375 0l-1.46875 4.046875l-1.875 0zm3.859375 -5.484375l4.53125 0l-1.40625 -3.703125q-0.625 -1.6875 -0.9375 -2.765625q-0.265625 1.28125 -0.71875 2.546875l-1.46875 3.921875z" fill-rule="nonzero"/><path fill="#000000" d="m449.25986 209.17061l55.275574 0l0 55.27559l-55.275574 0z" fill-rule="evenodd"/><path stroke="#ffffff" stroke-width="3.0" stroke-linejoin="round" stroke-linecap="butt" d="m449.25986 209.17061l55.275574 0l0 55.27559l-55.275574 0z" fill-rule="evenodd"/><path fill="#ffffff" d="m478.6629 243.7284l-1.640625 0l0 -10.453125q-0.59375 0.5625 -1.5625 1.140625q-0.953125 0.5625 -1.71875 0.84375l0 -1.59375q1.375 -0.640625 2.40625 -1.5625q1.03125 -0.921875 1.453125 -1.78125l1.0625 0l0 13.40625z" fill-rule="nonzero"/><path fill="#000000" d="m449.25986 273.83792l55.275574 0l0 55.275604l-55.275574 0z" fill-rule="evenodd"/><path stroke="#ffffff" stroke-width="3.0" stroke-linejoin="round" stroke-linecap="butt" d="m449.25986 273.83792l55.275574 0l0 55.275604l-55.275574 0z" fill-rule="evenodd"/><path fill="#ffffff" d="m477.74103 308.39572l0 -3.203125l-5.796875 0l0 -1.5l6.09375 -8.65625l1.34375 0l0 8.65625l1.796875 0l0 1.5l-1.796875 0l0 3.203125l-1.640625 0zm0 -4.703125l0 -6.015625l-4.1875 6.015625l4.1875 0z" fill-rule="nonzero"/><path fill="#000000" d="m449.25986 339.44095l55.275574 0l0 55.275574l-55.275574 0z" fill-rule="evenodd"/><path stroke="#ffffff" stroke-width="3.0" stroke-linejoin="round" stroke-linecap="butt" d="m449.25986 339.44095l55.275574 0l0 55.275574l-55.275574 0z" fill-rule="evenodd"/><path fill="#ffffff" d="m481.1004 372.42062l0 1.578125l-8.828125 0q-0.015625 -0.59375 0.1875 -1.140625q0.34375 -0.90625 1.078125 -1.78125q0.75 -0.875 2.15625 -2.015625q2.171875 -1.78125 2.9375 -2.828125q0.765625 -1.046875 0.765625 -1.96875q0 -0.984375 -0.703125 -1.640625q-0.6875 -0.671875 -1.8125 -0.671875q-1.1875 0 -1.90625 0.71875q-0.703125 0.703125 -0.703125 1.953125l-1.6875 -0.171875q0.171875 -1.890625 1.296875 -2.875q1.140625 -0.984375 3.03125 -0.984375q1.921875 0 3.046875 1.0625q1.125 1.0625 1.125 2.640625q0 0.796875 -0.328125 1.578125q-0.328125 0.78125 -1.09375 1.640625q-0.75 0.84375 -2.53125 2.34375q-1.46875 1.234375 -1.890625 1.6875q-0.421875 0.4375 -0.6875 0.875l6.546875 0z" fill-rule="nonzero"/><path fill="#000000" fill-opacity="0.0" d="m528.1575 273.83728l98.33069 0" fill-rule="evenodd"/><path stroke="#ffffff" stroke-width="3.0" stroke-linejoin="round" stroke-linecap="butt" d="m528.1575 273.83728l80.33069 0" fill-rule="evenodd"/><path fill="#ffffff" stroke="#ffffff" stroke-width="3.0" stroke-linecap="butt" d="m608.48816 278.79248l13.614319 -4.9552l-13.614319 -4.9552z" fill-rule="evenodd"/><path fill="#009ee3" d="m649.95013 145.28346l55.275574 0l0 55.27559l-55.275574 0z" fill-rule="evenodd"/><path stroke="#ffffff" stroke-width="3.0" stroke-linejoin="round" stroke-linecap="butt" d="m649.95013 145.28346l55.275574 0l0 55.27559l-55.275574 0z" fill-rule="evenodd"/><path fill="#ffffff" d="m660.52936 175.09377l1.4375 -0.125q0.09375 0.859375 0.46875 1.421875q0.375 0.546875 1.15625 0.890625q0.78125 0.328125 1.75 0.328125q0.875 0 1.53125 -0.25q0.671875 -0.265625 0.984375 -0.703125q0.328125 -0.453125 0.328125 -0.984375q0 -0.546875 -0.3125 -0.9375q-0.3125 -0.40625 -1.03125 -0.6875q-0.453125 -0.171875 -2.03125 -0.546875q-1.578125 -0.390625 -2.21875 -0.71875q-0.8125 -0.4375 -1.21875 -1.0625q-0.40625 -0.640625 -0.40625 -1.4375q0 -0.859375 0.484375 -1.609375q0.5 -0.765625 1.4375 -1.15625q0.953125 -0.390625 2.109375 -0.390625q1.28125 0 2.25 0.421875q0.96875 0.40625 1.484375 1.203125q0.53125 0.796875 0.578125 1.796875l-1.453125 0.109375q-0.125 -1.078125 -0.796875 -1.625q-0.671875 -0.5625 -2.0 -0.5625q-1.375 0 -2.0 0.5q-0.625 0.5 -0.625 1.21875q0 0.609375 0.4375 1.015625q0.4375 0.390625 2.28125 0.8125q1.859375 0.421875 2.546875 0.734375q1.0 0.453125 1.46875 1.171875q0.484375 0.703125 0.484375 1.625q0 0.90625 -0.53125 1.71875q-0.515625 0.8125 -1.5 1.265625q-0.984375 0.453125 -2.203125 0.453125q-1.5625 0 -2.609375 -0.453125q-1.046875 -0.46875 -1.65625 -1.375q-0.59375 -0.90625 -0.625 -2.0625zm18.703125 -7.765625l1.515625 0l0 6.609375q0 1.734375 -0.390625 2.75q-0.390625 1.015625 -1.40625 1.65625q-1.015625 0.640625 -2.671875 0.640625q-1.609375 0 -2.640625 -0.5625q-1.015625 -0.5625 -1.453125 -1.609375q-0.4375 -1.046875 -0.4375 -2.875l0 -6.609375l1.515625 0l0 6.609375q0 1.484375 0.265625 2.203125q0.28125 0.703125 0.953125 1.09375q0.6875 0.375 1.65625 0.375q1.671875 0 2.375 -0.75q0.71875 -0.765625 0.71875 -2.921875l0 -6.609375zm3.9921875 11.453125l0 -11.453125l2.28125 0l2.71875 8.109375q0.375 1.125 0.546875 1.6875q0.1875 -0.625 0.609375 -1.828125l2.734375 -7.96875l2.046875 0l0 11.453125l-1.46875 0l0 -9.59375l-3.328125 9.59375l-1.359375 0l-3.3125 -9.75l0 9.75l-1.46875 0z" fill-rule="nonzero"/><path fill="#8eddff" d="m649.95013 209.17061l55.275574 0l0 55.27559l-55.275574 0z" fill-rule="evenodd"/><path stroke="#ffffff" stroke-width="3.0" stroke-linejoin="round" stroke-linecap="butt" d="m649.95013 209.17061l55.275574 0l0 55.27559l-55.275574 0z" fill-rule="evenodd"/><path fill="#ffffff" d="m673.2907 232.11902l0 -1.578125l8.640625 0l0 1.28125q-1.28125 1.359375 -2.53125 3.609375q-1.25 2.25 -1.9375 4.625q-0.484375 1.671875 -0.625 3.671875l-1.6875 0q0.03125 -1.578125 0.625 -3.8125q0.59375 -2.234375 1.6875 -4.296875q1.109375 -2.078125 2.359375 -3.5l-6.53125 0z" fill-rule="nonzero"/></g></svg>
