<svg version="1.1" viewBox="0.0 0.0 960.0 540.0" fill="none" stroke="none" stroke-linecap="square" stroke-miterlimit="10" xmlns:xlink="http://www.w3.org/1999/xlink" xmlns="http://www.w3.org/2000/svg"><clipPath id="g1f51f684b29_0_800.0"><path d="m0 0l960.0 0l0 540.0l-960.0 0l0 -540.0z" clip-rule="nonzero"/></clipPath><g clip-path="url(#g1f51f684b29_0_800.0)"><path fill="#000000" d="m0 0l960.0 0l0 540.0l-960.0 0z" fill-rule="evenodd"/><path fill="#000000" fill-opacity="0.0" d="m889.4969 489.57657l57.606323 0l0 41.322845l-57.606323 0z" fill-rule="evenodd"/><path fill="#adadad" d="m920.83453 515.03796l-1.171875 0l0 -7.4687195q-0.421875 0.40625 -1.109375 0.8125q-0.6875 0.40625 -1.234375 0.609375l0 -1.140625q0.984375 -0.453125 1.71875 -1.109375q0.734375 -0.671875 1.03125 -1.28125l0.765625 0l0 9.5780945zm2.9906006 -2.5l1.234375 -0.109375q0.140625 0.90625 0.640625 1.359375q0.5 0.453125 1.203125 0.453125q0.84375 0 1.421875 -0.640625q0.59375 -0.640625 0.59375 -1.6874695q0 -1.0 -0.5625 -1.578125q-0.5625 -0.59375 -1.484375 -0.59375q-0.5625 0 -1.015625 0.265625q-0.453125 0.25 -0.71875 0.671875l-1.09375 -0.15625l0.921875 -4.890625l4.75 0l0 1.109375l-3.8125 0l-0.515625 2.5625q0.859375 -0.59375 1.796875 -0.59375q1.25 0 2.109375 0.875q0.859375 0.859375 0.859375 2.21875q0 1.2968445 -0.75 2.2343445q-0.921875 1.15625 -2.5 1.15625q-1.3125 0 -2.140625 -0.71875q-0.8125 -0.734375 -0.9375 -1.9375zm7.4281006 -0.015625l1.171875 -0.15625q0.203125 1.0 0.6875 1.4375q0.484375 0.4375 1.171875 0.4375q0.828125 0 1.390625 -0.578125q0.578125 -0.578125 0.578125 -1.421875q0 -0.7968445 -0.53125 -1.3124695q-0.515625 -0.53125 -1.328125 -0.53125q-0.34375 0 -0.828125 0.125l0.125 -1.03125q0.125 0.015625 0.1875 0.015625q0.75 0 1.34375 -0.390625q0.609375 -0.390625 0.609375 -1.203125q0 -0.640625 -0.4375 -1.0625q-0.4375 -0.421875 -1.125 -0.421875q-0.6875 0 -1.140625 0.4375q-0.453125 0.421875 -0.59375 1.28125l-1.171875 -0.21875q0.21875 -1.171875 0.984375 -1.8125q0.765625 -0.65625 1.890625 -0.65625q0.78125 0 1.4375 0.34375q0.65625 0.328125 1.0 0.90625q0.359375 0.578125 0.359375 1.234375q0 0.609375 -0.34375 1.125q-0.328125 0.5 -0.96875 0.796875q0.84375 0.203125 1.3125 0.828125q0.46875 0.609375 0.46875 1.5312195q0 1.25 -0.921875 2.125q-0.90625 0.859375 -2.296875 0.859375q-1.25 0 -2.09375 -0.75q-0.828125 -0.75 -0.9375 -1.9375z" fill-rule="nonzero"/><path fill="#000000" fill-opacity="0.0" d="m81.385826 234.4567l221.35431 0l0 71.08661l-221.35431 0z" fill-rule="evenodd"/><path fill="#ffffff" d="m110.27645 278.71356q0 1.09375 -0.375 1.96875q-0.375 0.875 -1.03125 1.5625q-0.640625 0.671875 -1.5 1.15625q-0.84375 0.46875 -1.8125 0.78125q-0.96875 0.3125 -2.0 0.453125q-1.015625 0.15625 -1.984375 0.15625q-2.125 0 -3.90625 -0.1875q-1.78125 -0.1875 -3.484375 -0.609375l0 -3.328125q1.828125 0.515625 3.640625 0.796875q1.8125 0.265625 3.59375 0.265625q2.609375 0 3.859375 -0.703125q1.25 -0.71875 1.25 -2.03125q0 -0.5625 -0.203125 -1.0q-0.1875 -0.453125 -0.71875 -0.859375q-0.515625 -0.40625 -1.609375 -0.84375q-1.09375 -0.4375 -2.984375 -1.0q-1.421875 -0.421875 -2.625 -0.953125q-1.1875 -0.53125 -2.0625 -1.25q-0.875 -0.734375 -1.375 -1.703125q-0.5 -0.984375 -0.5 -2.3125q0 -0.875 0.40625 -1.921875q0.40625 -1.046875 1.375 -1.9375q0.984375 -0.890625 2.65625 -1.484375q1.671875 -0.59375 4.15625 -0.59375q1.234375 0 2.734375 0.140625q1.5 0.125 3.125 0.453125l0 3.234375q-1.703125 -0.421875 -3.234375 -0.609375q-1.53125 -0.203125 -2.65625 -0.203125q-1.359375 0 -2.28125 0.21875q-0.921875 0.203125 -1.5 0.5625q-0.578125 0.359375 -0.828125 0.859375q-0.25 0.484375 -0.25 1.046875q0 0.5625 0.21875 1.03125q0.21875 0.453125 0.8125 0.875q0.59375 0.421875 1.65625 0.859375q1.0625 0.421875 2.765625 0.921875q1.859375 0.546875 3.125 1.140625q1.28125 0.578125 2.0625 1.3125q0.796875 0.734375 1.140625 1.65625q0.34375 0.90625 0.34375 2.078125zm24.561989 -5.859375q0 0.78125 -0.03125 1.296875q-0.015625 0.515625 -0.0625 0.96875l-14.671883 0q0 3.21875 1.78125 4.9375q1.796875 1.71875 5.171875 1.71875q0.90625 0 1.8281326 -0.078125q0.921875 -0.078125 1.765625 -0.203125q0.859375 -0.125 1.640625 -0.28125q0.78125 -0.15625 1.453125 -0.34375l0 2.984375q-1.484375 0.421875 -3.359375 0.671875q-1.859375 0.265625 -3.8593826 0.265625q-2.671875 0 -4.609375 -0.71875q-1.9375 -0.734375 -3.1875 -2.125q-1.234375 -1.390625 -1.828125 -3.390625q-0.59375 -2.015625 -0.59375 -4.5625q0 -2.203125 0.625 -4.171875q0.640625 -1.96875 1.859375 -3.453125q1.21875 -1.484375 2.984375 -2.359375q1.78125 -0.875 4.03125 -0.875q2.1875 0 3.8750076 0.6875q1.6875 0.6875 2.84375 1.953125q1.15625 1.25 1.75 3.0625q0.59375 1.796875 0.59375 4.015625zm-3.78125 -0.515625q0.0625 -1.390625 -0.265625 -2.546875q-0.328125 -1.15625 -1.03125 -1.984375q-0.703125 -0.84375 -1.75 -1.3125q-1.0312576 -0.46875 -2.4062576 -0.46875q-1.1875 0 -2.171875 0.46875q-0.96875 0.453125 -1.6875 1.28125q-0.703125 0.828125 -1.140625 2.0q-0.4375 1.171875 -0.53125 2.5625l10.984383 0zm16.686981 -14.375l-6.1875 0l0 -2.984375l9.859375 0l0 26.421875l6.21875 0l0 3.015625l-16.765625 0l0 -3.015625l6.875 0l0 -23.4375zm33.99948 14.890625q0 0.78125 -0.03125 1.296875q-0.015625 0.515625 -0.0625 0.96875l-14.671875 0q0 3.21875 1.78125 4.9375q1.796875 1.71875 5.171875 1.71875q0.90625 0 1.828125 -0.078125q0.921875 -0.078125 1.765625 -0.203125q0.859375 -0.125 1.640625 -0.28125q0.78125 -0.15625 1.453125 -0.34375l0 2.984375q-1.484375 0.421875 -3.359375 0.671875q-1.859375 0.265625 -3.859375 0.265625q-2.671875 0 -4.609375 -0.71875q-1.9375 -0.734375 -3.1875 -2.125q-1.234375 -1.390625 -1.828125 -3.390625q-0.59375 -2.015625 -0.59375 -4.5625q0 -2.203125 0.625 -4.171875q0.640625 -1.96875 1.859375 -3.453125q1.21875 -1.484375 2.984375 -2.359375q1.78125 -0.875 4.03125 -0.875q2.1875 0 3.875 0.6875q1.6875 0.6875 2.84375 1.953125q1.15625 1.25 1.75 3.0625q0.59375 1.796875 0.59375 4.015625zm-3.78125 -0.515625q0.0625 -1.390625 -0.265625 -2.546875q-0.328125 -1.15625 -1.03125 -1.984375q-0.703125 -0.84375 -1.75 -1.3125q-1.03125 -0.46875 -2.40625 -0.46875q-1.1875 0 -2.171875 0.46875q-0.96875 0.453125 -1.6875 1.28125q-0.703125 0.828125 -1.140625 2.0q-0.4375 1.171875 -0.53125 2.5625l10.984375 0zm25.811981 11.3125q-1.421875 0.53125 -2.90625 0.796875q-1.484375 0.265625 -3.078125 0.265625q-4.953125 0 -7.625 -2.6875q-2.671875 -2.6875 -2.671875 -7.859375q0 -2.46875 0.765625 -4.484375q0.765625 -2.03125 2.15625 -3.46875q1.40625 -1.4375 3.34375 -2.21875q1.9375 -0.78125 4.265625 -0.78125q1.625 0 3.03125 0.234375q1.421875 0.21875 2.71875 0.75l0 3.453125q-1.359375 -0.703125 -2.765625 -1.03125q-1.40625 -0.328125 -2.90625 -0.328125q-1.390625 0 -2.625 0.53125q-1.234375 0.53125 -2.171875 1.53125q-0.9375 1.0 -1.484375 2.4375q-0.546875 1.4375 -0.546875 3.25q0 3.796875 1.84375 5.6875q1.84375 1.875 5.109375 1.875q1.484375 0 2.859375 -0.328125q1.390625 -0.34375 2.6875 -1.0l0 3.375zm24.061981 0.46875q-1.234375 0.3125 -2.546875 0.453125q-1.3125 0.140625 -2.671875 0.140625q-3.9375 0 -5.875 -1.78125q-1.921875 -1.78125 -1.921875 -5.46875l0 -10.921875l-5.859375 0l0 -3.03125l5.859375 0l0 -5.75l3.609375 -0.9375l0 6.6875l9.40625 0l0 3.03125l-9.40625 0l0 10.625q0 2.25 1.203125 3.375q1.203125 1.109375 3.53125 1.109375q1.0 0 2.1875 -0.15625q1.1875 -0.15625 2.484375 -0.5l0 3.125zm19.108856 9.046875q-9.59375 -8.890625 -9.59375 -19.65625q0 -2.53125 0.5 -5.03125q0.515625 -2.515625 1.65625 -5.03125q1.140625 -2.53125 3.0 -5.046875q1.859375 -2.515625 4.53125 -5.0l2.09375 2.140625q-8.078125 7.984375 -8.078125 17.6875q0 4.828125 2.03125 9.296875q2.046875 4.453125 6.046875 8.40625l-2.1875 2.234375zm15.218231 -39.765625q9.59375 8.890625 9.59375 19.796875q0 2.234375 -0.46875 4.65625q-0.453125 2.421875 -1.5625 4.953125q-1.09375 2.53125 -2.953125 5.125q-1.859375 2.609375 -4.703125 5.234375l-2.09375 -2.140625q4.0625 -4.03125 6.046875 -8.40625q2.0 -4.375 2.0 -9.15625q0 -9.921875 -8.046875 -17.828125l2.1875 -2.234375z" fill-rule="nonzero"/><path fill="#adadad" d="m385.29135 145.28346l55.275574 0l0 55.27559l-55.275574 0z" fill-rule="evenodd"/><path stroke="#ffffff" stroke-width="3.0" stroke-linejoin="round" stroke-linecap="butt" d="m385.29135 145.28346l55.275574 0l0 55.27559l-55.275574 0z" fill-rule="evenodd"/><path fill="#ffffff" d="m406.6761 179.84126l5.125 -13.359375l1.90625 0l5.46875 13.359375l-2.015625 0l-1.546875 -4.046875l-5.59375 0l-1.46875 4.046875l-1.875 0zm3.859375 -5.484375l4.53125 0l-1.40625 -3.703125q-0.625 -1.6875 -0.9375 -2.765625q-0.265625 1.28125 -0.71875 2.546875l-1.46875 3.921875z" fill-rule="nonzero"/><path fill="#000000" fill-opacity="0.0" d="m452.27036 145.28346l55.275574 0l0 55.27559l-55.275574 0z" fill-rule="evenodd"/><path stroke="#ffffff" stroke-width="3.0" stroke-linejoin="round" stroke-linecap="butt" d="m452.27036 145.28346l55.275574 0l0 55.27559l-55.275574 0z" fill-rule="evenodd"/><path fill="#ffffff" d="m475.04572 179.84126l0 -13.359375l5.015625 0q1.53125 0 2.453125 0.40625q0.921875 0.40625 1.4375 1.25q0.53125 0.84375 0.53125 1.765625q0 0.859375 -0.46875 1.625q-0.453125 0.75 -1.390625 1.203125q1.203125 0.359375 1.859375 1.21875q0.65625 0.859375 0.65625 2.015625q0 0.9375 -0.40625 1.75q-0.390625 0.796875 -0.984375 1.234375q-0.578125 0.4375 -1.453125 0.671875q-0.875 0.21875 -2.15625 0.21875l-5.09375 0zm1.78125 -7.75l2.875 0q1.1875 0 1.6875 -0.140625q0.671875 -0.203125 1.015625 -0.671875q0.34375 -0.46875 0.34375 -1.171875q0 -0.65625 -0.328125 -1.15625q-0.3125 -0.515625 -0.90625 -0.703125q-0.59375 -0.1875 -2.03125 -0.1875l-2.65625 0l0 4.03125zm0 6.171875l3.3125 0q0.859375 0 1.203125 -0.0625q0.609375 -0.109375 1.015625 -0.359375q0.421875 -0.265625 0.6875 -0.75q0.265625 -0.484375 0.265625 -1.125q0 -0.75 -0.390625 -1.296875q-0.375 -0.546875 -1.0625 -0.765625q-0.671875 -0.234375 -1.953125 -0.234375l-3.078125 0l0 4.59375z" fill-rule="nonzero"/><path fill="#000000" fill-opacity="0.0" d="m519.2493 145.28346l55.275635 0l0 55.27559l-55.275635 0z" fill-rule="evenodd"/><path stroke="#ffffff" stroke-width="3.0" stroke-linejoin="round" stroke-linecap="butt" d="m519.2493 145.28346l55.275635 0l0 55.27559l-55.275635 0z" fill-rule="evenodd"/><path fill="#ffffff" d="m551.1194 175.15376l1.765625 0.453125q-0.5625 2.171875 -2.0 3.328125q-1.4375 1.140625 -3.53125 1.140625q-2.15625 0 -3.515625 -0.875q-1.34375 -0.890625 -2.0625 -2.546875q-0.703125 -1.671875 -0.703125 -3.59375q0 -2.078125 0.796875 -3.625q0.796875 -1.5625 2.265625 -2.359375q1.484375 -0.8125 3.25 -0.8125q2.0 0 3.359375 1.015625q1.375 1.015625 1.90625 2.875l-1.734375 0.40625q-0.46875 -1.453125 -1.359375 -2.109375q-0.875 -0.671875 -2.203125 -0.671875q-1.546875 0 -2.578125 0.734375q-1.03125 0.734375 -1.453125 1.984375q-0.421875 1.234375 -0.421875 2.5625q0 1.703125 0.5 2.96875q0.5 1.265625 1.546875 1.90625q1.046875 0.625 2.265625 0.625q1.484375 0 2.515625 -0.859375q1.03125 -0.859375 1.390625 -2.546875z" fill-rule="nonzero"/><path fill="#009ee3" d="m385.29135 209.17061l55.275574 0l0 55.27559l-55.275574 0z" fill-rule="evenodd"/><path stroke="#ffffff" stroke-width="3.0" stroke-linejoin="round" stroke-linecap="butt" d="m385.29135 209.17061l55.275574 0l0 55.27559l-55.275574 0z" fill-rule="evenodd"/><path fill="#009ee3" d="m385.29135 273.05774l55.275574 0l0 55.275604l-55.275574 0z" fill-rule="evenodd"/><path stroke="#ffffff" stroke-width="3.0" stroke-linejoin="round" stroke-linecap="butt" d="m385.29135 273.05774l55.275574 0l0 55.275604l-55.275574 0z" fill-rule="evenodd"/><path fill="#009ee3" d="m385.29135 339.44095l55.275574 0l0 55.275574l-55.275574 0z" fill-rule="evenodd"/><path stroke="#ffffff" stroke-width="3.0" stroke-linejoin="round" stroke-linecap="butt" d="m385.29135 339.44095l55.275574 0l0 55.275574l-55.275574 0z" fill-rule="evenodd"/><path fill="#000000" fill-opacity="0.0" d="m452.27036 209.17061l55.275574 0l0 55.27559l-55.275574 0z" fill-rule="evenodd"/><path stroke="#ffffff" stroke-width="3.0" stroke-linejoin="round" stroke-linecap="butt" d="m452.27036 209.17061l55.275574 0l0 55.27559l-55.275574 0z" fill-rule="evenodd"/><path fill="#000000" fill-opacity="0.0" d="m452.27036 273.05774l55.275574 0l0 55.275604l-55.275574 0z" fill-rule="evenodd"/><path stroke="#ffffff" stroke-width="3.0" stroke-linejoin="round" stroke-linecap="butt" d="m452.27036 273.05774l55.275574 0l0 55.275604l-55.275574 0z" fill-rule="evenodd"/><path fill="#000000" fill-opacity="0.0" d="m452.27036 339.44095l55.275574 0l0 55.275574l-55.275574 0z" fill-rule="evenodd"/><path stroke="#ffffff" stroke-width="3.0" stroke-linejoin="round" stroke-linecap="butt" d="m452.27036 339.44095l55.275574 0l0 55.275574l-55.275574 0z" fill-rule="evenodd"/><path fill="#000000" fill-opacity="0.0" d="m519.2493 209.79527l55.275635 0l0 55.27559l-55.275635 0z" fill-rule="evenodd"/><path stroke="#ffffff" stroke-width="3.0" stroke-linejoin="round" stroke-linecap="butt" d="m519.2493 209.79527l55.275635 0l0 55.27559l-55.275635 0z" fill-rule="evenodd"/><path fill="#000000" fill-opacity="0.0" d="m519.2493 274.3058l55.275635 0l0 55.275574l-55.275635 0z" fill-rule="evenodd"/><path stroke="#ffffff" stroke-width="3.0" stroke-linejoin="round" stroke-linecap="butt" d="m519.2493 274.3058l55.275635 0l0 55.275574l-55.275635 0z" fill-rule="evenodd"/><path fill="#000000" fill-opacity="0.0" d="m519.2493 339.44095l55.275635 0l0 55.275574l-55.275635 0z" fill-rule="evenodd"/><path stroke="#ffffff" stroke-width="3.0" stroke-linejoin="round" stroke-linecap="butt" d="m519.2493 339.44095l55.275635 0l0 55.275574l-55.275635 0z" fill-rule="evenodd"/><path fill="#adadad" d="m727.43304 145.28346l55.275635 0l0 55.27559l-55.275635 0z" fill-rule="evenodd"/><path stroke="#ffffff" stroke-width="3.0" stroke-linejoin="round" stroke-linecap="butt" d="m727.43304 145.28346l55.275635 0l0 55.27559l-55.275635 0z" fill-rule="evenodd"/><path fill="#ffffff" d="m748.8178 179.84126l5.125 -13.359375l1.90625 0l5.46875 13.359375l-2.015625 0l-1.546875 -4.046875l-5.59375 0l-1.46875 4.046875l-1.875 0zm3.859375 -5.484375l4.53125 0l-1.40625 -3.703125q-0.625 -1.6875 -0.9375 -2.765625q-0.265625 1.28125 -0.71875 2.546875l-1.46875 3.921875z" fill-rule="nonzero"/><path fill="#009ee3" d="m727.43304 209.17061l55.275635 0l0 55.27559l-55.275635 0z" fill-rule="evenodd"/><path stroke="#ffffff" stroke-width="3.0" stroke-linejoin="round" stroke-linecap="butt" d="m727.43304 209.17061l55.275635 0l0 55.27559l-55.275635 0z" fill-rule="evenodd"/><path fill="#009ee3" d="m727.43304 273.05774l55.275635 0l0 55.275604l-55.275635 0z" fill-rule="evenodd"/><path stroke="#ffffff" stroke-width="3.0" stroke-linejoin="round" stroke-linecap="butt" d="m727.43304 273.05774l55.275635 0l0 55.275604l-55.275635 0z" fill-rule="evenodd"/><path fill="#009ee3" d="m727.43304 339.44095l55.275635 0l0 55.275574l-55.275635 0z" fill-rule="evenodd"/><path stroke="#ffffff" stroke-width="3.0" stroke-linejoin="round" stroke-linecap="butt" d="m727.43304 339.44095l55.275635 0l0 55.275574l-55.275635 0z" fill-rule="evenodd"/><path fill="#000000" fill-opacity="0.0" d="m604.93176 270.0l102.5827 0" fill-rule="evenodd"/><path stroke="#ffffff" stroke-width="3.0" stroke-linejoin="round" stroke-linecap="butt" d="m604.93176 270.0l84.5827 0" fill-rule="evenodd"/><path fill="#ffffff" stroke="#ffffff" stroke-width="3.0" stroke-linecap="butt" d="m689.51447 274.9552l13.614258 -4.9552l-13.614258 -4.9552z" fill-rule="evenodd"/></g></svg>
