<svg version="1.1" viewBox="0.0 0.0 960.0 540.0" fill="none" stroke="none" stroke-linecap="square" stroke-miterlimit="10" xmlns:xlink="http://www.w3.org/1999/xlink" xmlns="http://www.w3.org/2000/svg"><clipPath id="g3cb03c61121_0_176.0"><path d="m0 0l960.0 0l0 540.0l-960.0 0l0 -540.0z" clip-rule="nonzero"/></clipPath><g clip-path="url(#g3cb03c61121_0_176.0)"><path fill="#000000" d="m0 0l960.0 0l0 540.0l-960.0 0z" fill-rule="evenodd"/><path fill="#000000" fill-opacity="0.0" d="m889.4969 489.57657l57.606323 0l0 41.322845l-57.606323 0z" fill-rule="evenodd"/><path fill="#adadad" d="m920.83453 515.03796l-1.171875 0l0 -7.4687195q-0.421875 0.40625 -1.109375 0.8125q-0.6875 0.40625 -1.234375 0.609375l0 -1.140625q0.984375 -0.453125 1.71875 -1.109375q0.734375 -0.671875 1.03125 -1.28125l0.765625 0l0 9.5780945zm9.068726 -7.2030945l-1.15625 0.09375q-0.15625 -0.6875 -0.4375 -1.0q-0.484375 -0.5 -1.171875 -0.5q-0.5625 0 -0.984375 0.3125q-0.5625 0.390625 -0.890625 1.171875q-0.3125 0.765625 -0.3125 2.203125q0.421875 -0.640625 1.03125 -0.953125q0.609375 -0.3125 1.28125 -0.3125q1.171875 0 1.984375 0.859375q0.828125 0.859375 0.828125 2.234375q0 0.8905945 -0.390625 1.6718445q-0.375 0.765625 -1.0625 1.171875q-0.671875 0.40625 -1.53125 0.40625q-1.46875 0 -2.390625 -1.0625q-0.921875 -1.078125 -0.921875 -3.5624695q0 -2.765625 1.015625 -4.015625q0.90625 -1.09375 2.40625 -1.09375q1.125 0 1.84375 0.640625q0.71875 0.625 0.859375 1.734375zm-4.78125 4.109375q0 0.6093445 0.25 1.1718445q0.265625 0.546875 0.71875 0.84375q0.46875 0.28125 0.984375 0.28125q0.734375 0 1.265625 -0.59375q0.546875 -0.609375 0.546875 -1.640625q0 -0.9843445 -0.53125 -1.5468445q-0.53125 -0.578125 -1.328125 -0.578125q-0.796875 0 -1.359375 0.578125q-0.546875 0.5625 -0.546875 1.484375zm10.537476 3.0937195l-1.171875 0l0 -7.4687195q-0.421875 0.40625 -1.109375 0.8125q-0.6875 0.40625 -1.234375 0.609375l0 -1.140625q0.984375 -0.453125 1.71875 -1.109375q0.734375 -0.671875 1.03125 -1.28125l0.765625 0l0 9.5780945z" fill-rule="nonzero"/><path fill="#000000" fill-opacity="0.0" d="m81.385826 234.4567l254.51968 0l0 71.08661l-254.51968 0z" fill-rule="evenodd"/><path fill="#ffffff" d="m108.77645 266.46356q0.578125 0.734375 0.90625 1.703125q0.328125 0.96875 0.328125 2.09375q0 1.625 -0.59375 2.96875q-0.59375 1.328125 -1.6875 2.296875q-1.078125 0.953125 -2.59375 1.484375q-1.5 0.53125 -3.3125 0.53125q-1.3125 0 -2.46875 -0.28125q-1.140625 -0.28125 -1.796875 -0.703125q-0.40625 0.59375 -0.671875 1.109375q-0.265625 0.515625 -0.265625 1.171875q0 0.78125 0.75 1.3125q0.765625 0.515625 2.015625 0.5625l5.5 0.203125q1.5625 0.046875 2.875 0.40625q1.328125 0.34375 2.265625 1.015625q0.953125 0.65625 1.484375 1.640625q0.53125 0.984375 0.53125 2.265625q0 1.40625 -0.609375 2.65625q-0.59375 1.25 -1.859375 2.1875q-1.25 0.953125 -3.1875 1.515625q-1.9375 0.5625 -4.609375 0.5625q-2.53125 0 -4.3125 -0.40625q-1.78125 -0.40625 -2.9375 -1.125q-1.140625 -0.71875 -1.671875 -1.71875q-0.515625 -0.984375 -0.515625 -2.171875q0 -1.515625 0.703125 -2.671875q0.71875 -1.140625 2.203125 -2.203125q-0.546875 -0.25 -0.953125 -0.625q-0.390625 -0.375 -0.640625 -0.8125q-0.25 -0.453125 -0.375 -0.953125q-0.125 -0.5 -0.125 -0.984375q0 -1.34375 0.640625 -2.46875q0.640625 -1.125 1.515625 -2.125q-0.40625 -0.484375 -0.703125 -0.9375q-0.296875 -0.453125 -0.515625 -0.984375q-0.21875 -0.53125 -0.34375 -1.140625q-0.109375 -0.625 -0.109375 -1.421875q0 -1.625 0.59375 -2.96875q0.59375 -1.34375 1.65625 -2.296875q1.078125 -0.953125 2.59375 -1.484375q1.515625 -0.53125 3.34375 -0.53125q0.765625 0 1.46875 0.109375q0.71875 0.09375 1.25 0.265625l7.59375 0l0 2.953125l-3.359375 0zm-12.578125 20.96875q0 1.484375 1.53125 2.15625q1.546875 0.6875 4.296875 0.6875q1.734375 0 2.90625 -0.3125q1.171875 -0.3125 1.890625 -0.828125q0.71875 -0.515625 1.03125 -1.171875q0.3125 -0.65625 0.3125 -1.34375q0 -1.265625 -1.046875 -1.875q-1.03125 -0.59375 -3.171875 -0.703125l-5.453125 -0.1875q-0.6875 0.453125 -1.140625 0.890625q-0.453125 0.4375 -0.703125 0.890625q-0.25 0.453125 -0.359375 0.890625q-0.09375 0.453125 -0.09375 0.90625zm1.109375 -17.09375q0 1.0 0.328125 1.84375q0.328125 0.828125 0.9375 1.40625q0.609375 0.578125 1.421875 0.90625q0.828125 0.3125 1.828125 0.3125q1.078125 0 1.921875 -0.359375q0.84375 -0.359375 1.40625 -0.984375q0.578125 -0.625 0.875 -1.4375q0.3125 -0.8125 0.3125 -1.6875q0 -1.0 -0.34375 -1.828125q-0.328125 -0.84375 -0.9375 -1.421875q-0.59375 -0.578125 -1.421875 -0.90625q-0.8125 -0.328125 -1.8125 -0.328125q-1.078125 0 -1.921875 0.375q-0.84375 0.375 -1.421875 1.0q-0.578125 0.609375 -0.875 1.421875q-0.296875 0.8125 -0.296875 1.6875zm20.718231 -6.828125l3.3125 0l0.109375 3.84375q1.84375 -2.21875 3.640625 -3.21875q1.8125 -1.0 3.6406326 -1.0q3.25 0 4.921875 2.109375q1.6875 2.09375 1.5625 6.234375l-3.671875 0q0.0625 -2.75 -0.8125 -3.984375q-0.859375 -1.234375 -2.515625 -1.234375q-0.7343826 0 -1.4843826 0.265625q-0.734375 0.25 -1.515625 0.828125q-0.765625 0.5625 -1.640625 1.46875q-0.875 0.890625 -1.875 2.15625l0 13.4375l-3.671875 0l0 -20.90625zm40.796364 10.28125q0 2.4375 -0.6875 4.46875q-0.6875 2.03125 -1.984375 3.484375q-1.28125 1.4375 -3.140625 2.25q-1.84375 0.796875 -4.203125 0.796875q-2.25 0 -4.03125 -0.6875q-1.78125 -0.703125 -3.015625 -2.0625q-1.234375 -1.359375 -1.890625 -3.359375q-0.65625 -2.0 -0.65625 -4.59375q0 -2.4375 0.6875 -4.4375q0.6875 -2.015625 1.96875 -3.46875q1.296875 -1.453125 3.140625 -2.25q1.859375 -0.796875 4.21875 -0.796875q2.25 0 4.03125 0.703125q1.78125 0.6875 3.015625 2.03125q1.234375 1.34375 1.890625 3.34375q0.65625 2.0 0.65625 4.578125zm-3.703125 0.171875q0 -1.9375 -0.4375 -3.375q-0.421875 -1.453125 -1.21875 -2.421875q-0.78125 -0.96875 -1.921875 -1.453125q-1.125 -0.5 -2.53125 -0.5q-1.609375 0 -2.765625 0.640625q-1.15625 0.625 -1.90625 1.6875q-0.734375 1.0625 -1.078125 2.46875q-0.34375 1.40625 -0.34375 2.953125q0 1.9375 0.421875 3.390625q0.4375 1.453125 1.21875 2.421875q0.796875 0.96875 1.921875 1.46875q1.125 0.484375 2.53125 0.484375q1.625 0 2.78125 -0.625q1.15625 -0.640625 1.890625 -1.703125q0.75 -1.0625 1.09375 -2.46875q0.34375 -1.40625 0.34375 -2.96875zm25.765106 10.453125l-3.25 0l-0.125 -3.375q-0.9375 1.078125 -1.78125 1.796875q-0.84375 0.71875 -1.6875 1.15625q-0.828125 0.4375 -1.671875 0.609375q-0.84375 0.1875 -1.765625 0.1875q-3.234375 0 -4.890625 -1.890625q-1.640625 -1.90625 -1.640625 -5.734375l0 -13.65625l3.625 0l0 13.359375q0 4.8125 3.625 4.8125q0.671875 0 1.296875 -0.1875q0.640625 -0.203125 1.328125 -0.6875q0.703125 -0.5 1.5 -1.328125q0.8125 -0.828125 1.8125 -2.109375l0 -13.859375l3.625 0l0 20.90625zm24.515106 -10.828125q0 2.78125 -0.78125 4.875q-0.78125 2.078125 -2.15625 3.453125q-1.375 1.375 -3.25 2.0625q-1.875 0.6875 -4.0625 0.6875q-1.0 0 -1.984375 -0.109375q-0.984375 -0.09375 -2.015625 -0.34375l0 8.75l-3.625 0l0 -29.453125l3.234375 0l0.234375 3.5q1.5625 -2.15625 3.328125 -3.015625q1.765625 -0.859375 3.828125 -0.859375q1.796875 0 3.140625 0.75q1.359375 0.75 2.265625 2.109375q0.921875 1.359375 1.375 3.296875q0.46875 1.921875 0.46875 4.296875zm-3.703125 0.15625q0 -1.640625 -0.25 -3.015625q-0.234375 -1.375 -0.765625 -2.34375q-0.515625 -0.984375 -1.328125 -1.53125q-0.8125 -0.5625 -1.9375 -0.5625q-0.6875 0 -1.390625 0.21875q-0.703125 0.21875 -1.46875 0.734375q-0.75 0.515625 -1.59375 1.359375q-0.84375 0.84375 -1.8125 2.09375l0 10.140625q1.0 0.40625 2.109375 0.65625q1.109375 0.234375 2.15625 0.234375q2.9375 0 4.609375 -1.984375q1.671875 -2.0 1.671875 -6.0zm29.405731 19.21875l-23.453125 0l0 -3.0l23.453125 0l0 3.0zm21.202606 -19.375q0 2.59375 -0.71875 4.65625q-0.71875 2.046875 -2.046875 3.484375q-1.3125 1.421875 -3.21875 2.1875q-1.890625 0.75 -4.265625 0.75q-1.84375 0 -3.78125 -0.34375q-1.9375 -0.359375 -3.84375 -1.140625l0 -28.203125l3.625 0l0 8.109375l-0.15625 3.875q1.5625 -2.109375 3.328125 -2.96875q1.78125 -0.859375 3.828125 -0.859375q1.796875 0 3.140625 0.75q1.359375 0.75 2.265625 2.109375q0.921875 1.359375 1.375 3.296875q0.46875 1.921875 0.46875 4.296875zm-3.703125 0.15625q0 -1.640625 -0.25 -3.015625q-0.234375 -1.375 -0.765625 -2.34375q-0.515625 -0.984375 -1.328125 -1.53125q-0.8125 -0.5625 -1.9375 -0.5625q-0.6875 0 -1.390625 0.21875q-0.703125 0.21875 -1.46875 0.734375q-0.75 0.515625 -1.59375 1.359375q-0.84375 0.84375 -1.8125 2.09375l0 10.140625q1.0625 0.40625 2.171875 0.65625q1.109375 0.234375 2.09375 0.234375q1.25 0 2.390625 -0.390625q1.140625 -0.40625 2.0 -1.328125q0.859375 -0.921875 1.375 -2.453125q0.515625 -1.53125 0.515625 -3.8125zm27.890106 -10.234375l-7.125 18.703125q-1.109375 2.84375 -2.296875 4.90625q-1.171875 2.0625 -2.5625 3.390625q-1.390625 1.328125 -3.0625 1.953125q-1.65625 0.625 -3.71875 0.625q-0.546875 0 -0.984375 -0.03125q-0.4375 -0.015625 -0.953125 -0.0625l0 -3.28125q0.453125 0.0625 0.984375 0.109375q0.546875 0.046875 1.15625 0.046875q1.0 0 1.859375 -0.296875q0.875 -0.28125 1.640625 -0.9375q0.765625 -0.65625 1.46875 -1.703125q0.71875 -1.03125 1.390625 -2.515625l-8.359375 -20.90625l4.125 0l5.28125 13.828125l1.0625 3.25l1.21875 -3.34375l4.890625 -13.734375l3.984375 0zm17.358856 29.65625q-9.59375 -8.890625 -9.59375 -19.65625q0 -2.53125 0.5 -5.03125q0.515625 -2.515625 1.65625 -5.03125q1.140625 -2.53125 3.0 -5.046875q1.859375 -2.515625 4.53125 -5.0l2.09375 2.140625q-8.078125 7.984375 -8.078125 17.6875q0 4.828125 2.03125 9.296875q2.046875 4.453125 6.046875 8.40625l-2.1875 2.234375zm15.218231 -39.765625q9.59375 8.890625 9.59375 19.796875q0 2.234375 -0.46875 4.65625q-0.453125 2.421875 -1.5625 4.953125q-1.09375 2.53125 -2.953125 5.125q-1.859375 2.609375 -4.703125 5.234375l-2.09375 -2.140625q4.0625 -4.03125 6.046875 -8.40625q2.0 -4.375 2.0 -9.15625q0 -9.921875 -8.046875 -17.828125l2.1875 -2.234375z" fill-rule="nonzero"/><path fill="#adadad" d="m385.29135 78.90026l55.275574 0l0 55.275597l-55.275574 0z" fill-rule="evenodd"/><path stroke="#ffffff" stroke-width="3.0" stroke-linejoin="round" stroke-linecap="butt" d="m385.29135 78.90026l55.275574 0l0 55.275597l-55.275574 0z" fill-rule="evenodd"/><path fill="#ffffff" d="m406.6761 113.45805l5.125 -13.359375l1.90625 0l5.46875 13.359375l-2.015625 0l-1.546875 -4.046875l-5.59375 0l-1.46875 4.046875l-1.875 0zm3.859375 -5.484375l4.53125 0l-1.40625 -3.703125q-0.625 -1.6875 -0.9375 -2.765625q-0.265625 1.28125 -0.71875 2.546875l-1.46875 3.921875z" fill-rule="nonzero"/><path fill="#adadad" d="m452.27036 78.90026l55.275574 0l0 55.275597l-55.275574 0z" fill-rule="evenodd"/><path stroke="#ffffff" stroke-width="3.0" stroke-linejoin="round" stroke-linecap="butt" d="m452.27036 78.90026l55.275574 0l0 55.275597l-55.275574 0z" fill-rule="evenodd"/><path fill="#ffffff" d="m475.04572 113.45805l0 -13.359375l5.015625 0q1.53125 0 2.453125 0.40625q0.921875 0.40625 1.4375 1.25q0.53125 0.84375 0.53125 1.765625q0 0.859375 -0.46875 1.625q-0.453125 0.75 -1.390625 1.203125q1.203125 0.359375 1.859375 1.21875q0.65625 0.859375 0.65625 2.015625q0 0.9375 -0.40625 1.75q-0.390625 0.796875 -0.984375 1.234375q-0.578125 0.4375 -1.453125 0.671875q-0.875 0.21875 -2.15625 0.21875l-5.09375 0zm1.78125 -7.75l2.875 0q1.1875 0 1.6875 -0.140625q0.671875 -0.203125 1.015625 -0.671875q0.34375 -0.46875 0.34375 -1.171875q0 -0.65625 -0.328125 -1.15625q-0.3125 -0.515625 -0.90625 -0.703125q-0.59375 -0.1875 -2.03125 -0.1875l-2.65625 0l0 4.03125zm0 6.171875l3.3125 0q0.859375 0 1.203125 -0.0625q0.609375 -0.109375 1.015625 -0.359375q0.421875 -0.265625 0.6875 -0.75q0.265625 -0.484375 0.265625 -1.125q0 -0.75 -0.390625 -1.296875q-0.375 -0.546875 -1.0625 -0.765625q-0.671875 -0.234375 -1.953125 -0.234375l-3.078125 0l0 4.59375z" fill-rule="nonzero"/><path fill="#adadad" d="m519.2493 78.90026l55.275635 0l0 55.275597l-55.275635 0z" fill-rule="evenodd"/><path stroke="#ffffff" stroke-width="3.0" stroke-linejoin="round" stroke-linecap="butt" d="m519.2493 78.90026l55.275635 0l0 55.275597l-55.275635 0z" fill-rule="evenodd"/><path fill="#ffffff" d="m551.1194 108.77055l1.765625 0.453125q-0.5625 2.171875 -2.0 3.328125q-1.4375 1.140625 -3.53125 1.140625q-2.15625 0 -3.515625 -0.875q-1.34375 -0.890625 -2.0625 -2.546875q-0.703125 -1.671875 -0.703125 -3.59375q0 -2.078125 0.796875 -3.625q0.796875 -1.5625 2.265625 -2.359375q1.484375 -0.8125 3.25 -0.8125q2.0 0 3.359375 1.015625q1.375 1.015625 1.90625 2.875l-1.734375 0.40625q-0.46875 -1.453125 -1.359375 -2.109375q-0.875 -0.671875 -2.203125 -0.671875q-1.546875 0 -2.578125 0.734375q-1.03125 0.734375 -1.453125 1.984375q-0.421875 1.234375 -0.421875 2.5625q0 1.703125 0.5 2.96875q0.5 1.265625 1.546875 1.90625q1.046875 0.625 2.265625 0.625q1.484375 0 2.515625 -0.859375q1.03125 -0.859375 1.390625 -2.546875z" fill-rule="nonzero"/><path fill="#000000" fill-opacity="0.0" d="m385.29135 142.7874l55.275574 0l0 55.27559l-55.275574 0z" fill-rule="evenodd"/><path stroke="#ffffff" stroke-width="3.0" stroke-linejoin="round" stroke-linecap="butt" d="m385.29135 142.7874l55.275574 0l0 55.27559l-55.275574 0z" fill-rule="evenodd"/><path fill="#000000" fill-opacity="0.0" d="m385.29135 207.45473l55.275574 0l0 55.27559l-55.275574 0z" fill-rule="evenodd"/><path stroke="#ffffff" stroke-width="3.0" stroke-linejoin="round" stroke-linecap="butt" d="m385.29135 207.45473l55.275574 0l0 55.27559l-55.275574 0z" fill-rule="evenodd"/><path fill="#000000" fill-opacity="0.0" d="m385.29135 273.05774l55.275574 0l0 55.275604l-55.275574 0z" fill-rule="evenodd"/><path stroke="#ffffff" stroke-width="3.0" stroke-linejoin="round" stroke-linecap="butt" d="m385.29135 273.05774l55.275574 0l0 55.275604l-55.275574 0z" fill-rule="evenodd"/><path fill="#000000" fill-opacity="0.0" d="m452.27036 142.7874l55.275574 0l0 55.27559l-55.275574 0z" fill-rule="evenodd"/><path stroke="#ffffff" stroke-width="3.0" stroke-linejoin="round" stroke-linecap="butt" d="m452.27036 142.7874l55.275574 0l0 55.27559l-55.275574 0z" fill-rule="evenodd"/><path fill="#000000" fill-opacity="0.0" d="m452.27036 207.45473l55.275574 0l0 55.27559l-55.275574 0z" fill-rule="evenodd"/><path stroke="#ffffff" stroke-width="3.0" stroke-linejoin="round" stroke-linecap="butt" d="m452.27036 207.45473l55.275574 0l0 55.27559l-55.275574 0z" fill-rule="evenodd"/><path fill="#000000" fill-opacity="0.0" d="m452.27036 273.05774l55.275574 0l0 55.275604l-55.275574 0z" fill-rule="evenodd"/><path stroke="#ffffff" stroke-width="3.0" stroke-linejoin="round" stroke-linecap="butt" d="m452.27036 273.05774l55.275574 0l0 55.275604l-55.275574 0z" fill-rule="evenodd"/><path fill="#000000" fill-opacity="0.0" d="m519.2493 143.41208l55.275635 0l0 55.27559l-55.275635 0z" fill-rule="evenodd"/><path stroke="#ffffff" stroke-width="3.0" stroke-linejoin="round" stroke-linecap="butt" d="m519.2493 143.41208l55.275635 0l0 55.27559l-55.275635 0z" fill-rule="evenodd"/><path fill="#000000" fill-opacity="0.0" d="m519.2493 207.45473l55.275635 0l0 55.27559l-55.275635 0z" fill-rule="evenodd"/><path stroke="#ffffff" stroke-width="3.0" stroke-linejoin="round" stroke-linecap="butt" d="m519.2493 207.45473l55.275635 0l0 55.27559l-55.275635 0z" fill-rule="evenodd"/><path fill="#000000" fill-opacity="0.0" d="m519.2493 273.05774l55.275635 0l0 55.275604l-55.275635 0z" fill-rule="evenodd"/><path stroke="#ffffff" stroke-width="3.0" stroke-linejoin="round" stroke-linecap="butt" d="m519.2493 273.05774l55.275635 0l0 55.275604l-55.275635 0z" fill-rule="evenodd"/><path fill="#000000" fill-opacity="0.0" d="m385.29135 339.44095l55.275574 0l0 55.275574l-55.275574 0z" fill-rule="evenodd"/><path stroke="#ffffff" stroke-width="3.0" stroke-linejoin="round" stroke-linecap="butt" d="m385.29135 339.44095l55.275574 0l0 55.275574l-55.275574 0z" fill-rule="evenodd"/><path fill="#000000" fill-opacity="0.0" d="m452.27036 339.44095l55.275574 0l0 55.275574l-55.275574 0z" fill-rule="evenodd"/><path stroke="#ffffff" stroke-width="3.0" stroke-linejoin="round" stroke-linecap="butt" d="m452.27036 339.44095l55.275574 0l0 55.275574l-55.275574 0z" fill-rule="evenodd"/><path fill="#000000" fill-opacity="0.0" d="m519.2493 339.44095l55.275635 0l0 55.275574l-55.275635 0z" fill-rule="evenodd"/><path stroke="#ffffff" stroke-width="3.0" stroke-linejoin="round" stroke-linecap="butt" d="m519.2493 339.44095l55.275635 0l0 55.275574l-55.275635 0z" fill-rule="evenodd"/><path fill="#000000" fill-opacity="0.0" d="m385.29135 405.82416l55.275574 0l0 55.275574l-55.275574 0z" fill-rule="evenodd"/><path stroke="#ffffff" stroke-width="3.0" stroke-linejoin="round" stroke-linecap="butt" d="m385.29135 405.82416l55.275574 0l0 55.275574l-55.275574 0z" fill-rule="evenodd"/><path fill="#000000" fill-opacity="0.0" d="m452.27036 405.82416l55.275574 0l0 55.275574l-55.275574 0z" fill-rule="evenodd"/><path stroke="#ffffff" stroke-width="3.0" stroke-linejoin="round" stroke-linecap="butt" d="m452.27036 405.82416l55.275574 0l0 55.275574l-55.275574 0z" fill-rule="evenodd"/><path fill="#000000" fill-opacity="0.0" d="m519.2493 405.82416l55.275635 0l0 55.275574l-55.275635 0z" fill-rule="evenodd"/><path stroke="#ffffff" stroke-width="3.0" stroke-linejoin="round" stroke-linecap="butt" d="m519.2493 405.82416l55.275635 0l0 55.275574l-55.275635 0z" fill-rule="evenodd"/><path fill="#adadad" d="m681.95013 78.90026l55.275574 0l0 55.275597l-55.275574 0z" fill-rule="evenodd"/><path stroke="#ffffff" stroke-width="3.0" stroke-linejoin="round" stroke-linecap="butt" d="m681.95013 78.90026l55.275574 0l0 55.275597l-55.275574 0z" fill-rule="evenodd"/><path fill="#ffffff" d="m703.3349 113.45805l5.125 -13.359375l1.90625 0l5.46875 13.359375l-2.015625 0l-1.546875 -4.046875l-5.59375 0l-1.46875 4.046875l-1.875 0zm3.859375 -5.484375l4.53125 0l-1.40625 -3.703125q-0.625 -1.6875 -0.9375 -2.765625q-0.265625 1.28125 -0.71875 2.546875l-1.46875 3.921875z" fill-rule="nonzero"/><path fill="#adadad" d="m748.92914 78.90026l55.275574 0l0 55.275597l-55.275574 0z" fill-rule="evenodd"/><path stroke="#ffffff" stroke-width="3.0" stroke-linejoin="round" stroke-linecap="butt" d="m748.92914 78.90026l55.275574 0l0 55.275597l-55.275574 0z" fill-rule="evenodd"/><path fill="#ffffff" d="m771.7045 113.45805l0 -13.359375l5.015625 0q1.53125 0 2.453125 0.40625q0.921875 0.40625 1.4375 1.25q0.53125 0.84375 0.53125 1.765625q0 0.859375 -0.46875 1.625q-0.453125 0.75 -1.390625 1.203125q1.203125 0.359375 1.859375 1.21875q0.65625 0.859375 0.65625 2.015625q0 0.9375 -0.40625 1.75q-0.390625 0.796875 -0.984375 1.234375q-0.578125 0.4375 -1.453125 0.671875q-0.875 0.21875 -2.15625 0.21875l-5.09375 0zm1.78125 -7.75l2.875 0q1.1875 0 1.6875 -0.140625q0.671875 -0.203125 1.015625 -0.671875q0.34375 -0.46875 0.34375 -1.171875q0 -0.65625 -0.328125 -1.15625q-0.3125 -0.515625 -0.90625 -0.703125q-0.59375 -0.1875 -2.03125 -0.1875l-2.65625 0l0 4.03125zm0 6.171875l3.3125 0q0.859375 0 1.203125 -0.0625q0.609375 -0.109375 1.015625 -0.359375q0.421875 -0.265625 0.6875 -0.75q0.265625 -0.484375 0.265625 -1.125q0 -0.75 -0.390625 -1.296875q-0.375 -0.546875 -1.0625 -0.765625q-0.671875 -0.234375 -1.953125 -0.234375l-3.078125 0l0 4.59375z" fill-rule="nonzero"/><path fill="#adadad" d="m815.90814 78.90026l55.275574 0l0 55.275597l-55.275574 0z" fill-rule="evenodd"/><path stroke="#ffffff" stroke-width="3.0" stroke-linejoin="round" stroke-linecap="butt" d="m815.90814 78.90026l55.275574 0l0 55.275597l-55.275574 0z" fill-rule="evenodd"/><path fill="#ffffff" d="m847.7782 108.77055l1.765625 0.453125q-0.5625 2.171875 -2.0 3.328125q-1.4375 1.140625 -3.53125 1.140625q-2.15625 0 -3.515625 -0.875q-1.34375 -0.890625 -2.0625 -2.546875q-0.703125 -1.671875 -0.703125 -3.59375q0 -2.078125 0.796875 -3.625q0.796875 -1.5625 2.265625 -2.359375q1.484375 -0.8125 3.25 -0.8125q2.0 0 3.359375 1.015625q1.375 1.015625 1.90625 2.875l-1.734375 0.40625q-0.46875 -1.453125 -1.359375 -2.109375q-0.875 -0.671875 -2.203125 -0.671875q-1.546875 0 -2.578125 0.734375q-1.03125 0.734375 -1.453125 1.984375q-0.421875 1.234375 -0.421875 2.5625q0 1.703125 0.5 2.96875q0.5 1.265625 1.546875 1.90625q1.046875 0.625 2.265625 0.625q1.484375 0 2.515625 -0.859375q1.03125 -0.859375 1.390625 -2.546875z" fill-rule="nonzero"/><path fill="#666666" d="m681.95013 142.7874l55.275574 0l0 55.27559l-55.275574 0z" fill-rule="evenodd"/><path stroke="#ffffff" stroke-width="3.0" stroke-linejoin="round" stroke-linecap="butt" d="m681.95013 142.7874l55.275574 0l0 55.27559l-55.275574 0z" fill-rule="evenodd"/><path fill="#009ee3" d="m681.95013 207.45473l55.275574 0l0 55.27559l-55.275574 0z" fill-rule="evenodd"/><path stroke="#ffffff" stroke-width="3.0" stroke-linejoin="round" stroke-linecap="butt" d="m681.95013 207.45473l55.275574 0l0 55.27559l-55.275574 0z" fill-rule="evenodd"/><path fill="#009ee3" d="m681.95013 273.05774l55.275574 0l0 55.275604l-55.275574 0z" fill-rule="evenodd"/><path stroke="#ffffff" stroke-width="3.0" stroke-linejoin="round" stroke-linecap="butt" d="m681.95013 273.05774l55.275574 0l0 55.275604l-55.275574 0z" fill-rule="evenodd"/><path fill="#666666" d="m748.92914 142.7874l55.275574 0l0 55.27559l-55.275574 0z" fill-rule="evenodd"/><path stroke="#ffffff" stroke-width="3.0" stroke-linejoin="round" stroke-linecap="butt" d="m748.92914 142.7874l55.275574 0l0 55.27559l-55.275574 0z" fill-rule="evenodd"/><path fill="#009ee3" d="m748.92914 207.45473l55.275574 0l0 55.27559l-55.275574 0z" fill-rule="evenodd"/><path stroke="#ffffff" stroke-width="3.0" stroke-linejoin="round" stroke-linecap="butt" d="m748.92914 207.45473l55.275574 0l0 55.27559l-55.275574 0z" fill-rule="evenodd"/><path fill="#009ee3" d="m748.92914 273.05774l55.275574 0l0 55.275604l-55.275574 0z" fill-rule="evenodd"/><path stroke="#ffffff" stroke-width="3.0" stroke-linejoin="round" stroke-linecap="butt" d="m748.92914 273.05774l55.275574 0l0 55.275604l-55.275574 0z" fill-rule="evenodd"/><path fill="#666666" d="m815.90814 143.41208l55.275574 0l0 55.27559l-55.275574 0z" fill-rule="evenodd"/><path stroke="#ffffff" stroke-width="3.0" stroke-linejoin="round" stroke-linecap="butt" d="m815.90814 143.41208l55.275574 0l0 55.27559l-55.275574 0z" fill-rule="evenodd"/><path fill="#009ee3" d="m815.90814 207.45473l55.275574 0l0 55.27559l-55.275574 0z" fill-rule="evenodd"/><path stroke="#ffffff" stroke-width="3.0" stroke-linejoin="round" stroke-linecap="butt" d="m815.90814 207.45473l55.275574 0l0 55.27559l-55.275574 0z" fill-rule="evenodd"/><path fill="#009ee3" d="m815.90814 273.05774l55.275574 0l0 55.275604l-55.275574 0z" fill-rule="evenodd"/><path stroke="#ffffff" stroke-width="3.0" stroke-linejoin="round" stroke-linecap="butt" d="m815.90814 273.05774l55.275574 0l0 55.275604l-55.275574 0z" fill-rule="evenodd"/><path fill="#8eddff" d="m681.95013 339.44095l55.275574 0l0 55.275574l-55.275574 0z" fill-rule="evenodd"/><path stroke="#ffffff" stroke-width="3.0" stroke-linejoin="round" stroke-linecap="butt" d="m681.95013 339.44095l55.275574 0l0 55.275574l-55.275574 0z" fill-rule="evenodd"/><path fill="#8eddff" d="m748.92914 339.44095l55.275574 0l0 55.275574l-55.275574 0z" fill-rule="evenodd"/><path stroke="#ffffff" stroke-width="3.0" stroke-linejoin="round" stroke-linecap="butt" d="m748.92914 339.44095l55.275574 0l0 55.275574l-55.275574 0z" fill-rule="evenodd"/><path fill="#8eddff" d="m815.90814 339.44095l55.275574 0l0 55.275574l-55.275574 0z" fill-rule="evenodd"/><path stroke="#ffffff" stroke-width="3.0" stroke-linejoin="round" stroke-linecap="butt" d="m815.90814 339.44095l55.275574 0l0 55.275574l-55.275574 0z" fill-rule="evenodd"/><path fill="#8eddff" d="m681.95013 405.82416l55.275574 0l0 55.275574l-55.275574 0z" fill-rule="evenodd"/><path stroke="#ffffff" stroke-width="3.0" stroke-linejoin="round" stroke-linecap="butt" d="m681.95013 405.82416l55.275574 0l0 55.275574l-55.275574 0z" fill-rule="evenodd"/><path fill="#8eddff" d="m748.92914 405.82416l55.275574 0l0 55.275574l-55.275574 0z" fill-rule="evenodd"/><path stroke="#ffffff" stroke-width="3.0" stroke-linejoin="round" stroke-linecap="butt" d="m748.92914 405.82416l55.275574 0l0 55.275574l-55.275574 0z" fill-rule="evenodd"/><path fill="#8eddff" d="m815.90814 405.82416l55.275574 0l0 55.275574l-55.275574 0z" fill-rule="evenodd"/><path stroke="#ffffff" stroke-width="3.0" stroke-linejoin="round" stroke-linecap="butt" d="m815.90814 405.82416l55.275574 0l0 55.275574l-55.275574 0z" fill-rule="evenodd"/><path fill="#000000" fill-opacity="0.0" d="m593.26245 270.0l73.102356 0" fill-rule="evenodd"/><path stroke="#ffffff" stroke-width="3.0" stroke-linejoin="round" stroke-linecap="butt" d="m593.26245 270.0l55.102356 0" fill-rule="evenodd"/><path fill="#ffffff" stroke="#ffffff" stroke-width="3.0" stroke-linecap="butt" d="m648.3648 274.9552l13.614319 -4.9552l-13.614319 -4.9552z" fill-rule="evenodd"/></g></svg>
