<svg version="1.1" viewBox="0.0 0.0 960.0 540.0" fill="none" stroke="none" stroke-linecap="square" stroke-miterlimit="10" xmlns:xlink="http://www.w3.org/1999/xlink" xmlns="http://www.w3.org/2000/svg"><clipPath id="g3cb03c61121_0_0.0"><path d="m0 0l960.0 0l0 540.0l-960.0 0l0 -540.0z" clip-rule="nonzero"/></clipPath><g clip-path="url(#g3cb03c61121_0_0.0)"><path fill="#ffffff" d="m0 0l960.0 0l0 540.0l-960.0 0z" fill-rule="evenodd"/><path fill="#000000" fill-opacity="0.0" d="m81.385826 234.4567l221.35431 0l0 71.08661l-221.35431 0z" fill-rule="evenodd"/><path fill="#000000" d="m112.27645 258.3542q-2.859375 -0.59375 -4.921875 -0.59375q-4.890625 0 -4.890625 5.125l0 3.65625l9.171875 0l0 3.03125l-9.171875 0l0 14.84375l-3.6875 0l0 -14.84375l-6.71875 0l0 -3.03125l6.71875 0l0 -3.453125q0 -8.359375 8.703125 -8.359375q2.171875 0 4.796875 0.5l0 3.125zm-21.890625 5.15625l0 0zm33.90573 3.0l-6.1875 0l0 -3.0l9.859375 0l0 17.890625l6.2187576 0l0 3.015625l-16.765633 0l0 -3.015625l6.875 0l0 -14.890625zm1.265625 -11.78125q0.609375 0 1.125 0.21875q0.53125 0.21875 0.90625 0.625q0.390625 0.390625 0.6093826 0.90625q0.21875 0.5 0.21875 1.109375q0 0.578125 -0.21875 1.109375q-0.21875763 0.515625 -0.6093826 0.921875q-0.375 0.390625 -0.90625 0.609375q-0.515625 0.21875 -1.125 0.21875q-0.59375 0 -1.125 -0.21875q-0.515625 -0.21875 -0.90625 -0.609375q-0.375 -0.40625 -0.59375 -0.921875q-0.21875 -0.53125 -0.21875 -1.109375q0 -0.609375 0.21875 -1.109375q0.21875 -0.515625 0.59375 -0.90625q0.390625 -0.40625 0.90625 -0.625q0.53125 -0.21875 1.125 -0.21875zm22.186989 3.234375l-6.1875 0l0 -2.984375l9.859375 0l0 26.421875l6.21875 0l0 3.015625l-16.765625 0l0 -3.015625l6.875 0l0 -23.4375zm33.18698 26.15625q-1.234375 0.3125 -2.546875 0.453125q-1.3125 0.140625 -2.671875 0.140625q-3.9375 0 -5.875 -1.78125q-1.921875 -1.78125 -1.921875 -5.46875l0 -10.921875l-5.859375 0l0 -3.03125l5.859375 0l0 -5.75l3.609375 -0.9375l0 6.6875l9.40625 0l0 3.03125l-9.40625 0l0 10.625q0 2.25 1.203125 3.375q1.203125 1.109375 3.53125 1.109375q1.0 0 2.1875 -0.15625q1.1875 -0.15625 2.484375 -0.5l0 3.125zm24.265106 -11.265625q0 0.78125 -0.03125 1.296875q-0.015625 0.515625 -0.0625 0.96875l-14.671875 0q0 3.21875 1.78125 4.9375q1.796875 1.71875 5.171875 1.71875q0.90625 0 1.828125 -0.078125q0.921875 -0.078125 1.765625 -0.203125q0.859375 -0.125 1.640625 -0.28125q0.78125 -0.15625 1.453125 -0.34375l0 2.984375q-1.484375 0.421875 -3.359375 0.671875q-1.859375 0.265625 -3.859375 0.265625q-2.671875 0 -4.609375 -0.71875q-1.9375 -0.734375 -3.1875 -2.125q-1.234375 -1.390625 -1.828125 -3.390625q-0.59375 -2.015625 -0.59375 -4.5625q0 -2.203125 0.625 -4.171875q0.640625 -1.96875 1.859375 -3.453125q1.21875 -1.484375 2.984375 -2.359375q1.78125 -0.875 4.03125 -0.875q2.1875 0 3.875 0.6875q1.6875 0.6875 2.84375 1.953125q1.15625 1.25 1.75 3.0625q0.59375 1.796875 0.59375 4.015625zm-3.78125 -0.515625q0.0625 -1.390625 -0.265625 -2.546875q-0.328125 -1.15625 -1.03125 -1.984375q-0.703125 -0.84375 -1.75 -1.3125q-1.03125 -0.46875 -2.40625 -0.46875q-1.1875 0 -2.171875 0.46875q-0.96875 0.453125 -1.6875 1.28125q-0.703125 0.828125 -1.140625 2.0q-0.4375 1.171875 -0.53125 2.5625l10.984375 0zm10.421356 -8.828125l3.3125 0l0.109375 3.84375q1.84375 -2.21875 3.640625 -3.21875q1.8125 -1.0 3.640625 -1.0q3.25 0 4.921875 2.109375q1.6875 2.09375 1.5625 6.234375l-3.671875 0q0.0625 -2.75 -0.8125 -3.984375q-0.859375 -1.234375 -2.515625 -1.234375q-0.734375 0 -1.484375 0.265625q-0.734375 0.25 -1.515625 0.828125q-0.765625 0.5625 -1.640625 1.46875q-0.875 0.890625 -1.875 2.15625l0 13.4375l-3.671875 0l0 -20.90625zm35.108856 29.65625q-9.59375 -8.890625 -9.59375 -19.65625q0 -2.53125 0.5 -5.03125q0.515625 -2.515625 1.65625 -5.03125q1.140625 -2.53125 3.0 -5.046875q1.859375 -2.515625 4.53125 -5.0l2.09375 2.140625q-8.078125 7.984375 -8.078125 17.6875q0 4.828125 2.03125 9.296875q2.046875 4.453125 6.046875 8.40625l-2.1875 2.234375zm15.218231 -39.765625q9.59375 8.890625 9.59375 19.796875q0 2.234375 -0.46875 4.65625q-0.453125 2.421875 -1.5625 4.953125q-1.09375 2.53125 -2.953125 5.125q-1.859375 2.609375 -4.703125 5.234375l-2.09375 -2.140625q4.0625 -4.03125 6.046875 -8.40625q2.0 -4.375 2.0 -9.15625q0 -9.921875 -8.046875 -17.828125l2.1875 -2.234375z" fill-rule="nonzero"/><path fill="#cccccc" d="m385.29135 145.28346l55.275574 0l0 55.27559l-55.275574 0z" fill-rule="evenodd"/><path stroke="#000000" stroke-width="3.0" stroke-linejoin="round" stroke-linecap="butt" d="m385.29135 145.28346l55.275574 0l0 55.27559l-55.275574 0z" fill-rule="evenodd"/><path fill="#000000" d="m406.6761 179.84126l5.125 -13.359375l1.90625 0l5.46875 13.359375l-2.015625 0l-1.546875 -4.046875l-5.59375 0l-1.46875 4.046875l-1.875 0zm3.859375 -5.484375l4.53125 0l-1.40625 -3.703125q-0.625 -1.6875 -0.9375 -2.765625q-0.265625 1.28125 -0.71875 2.546875l-1.46875 3.921875z" fill-rule="nonzero"/><path fill="#cccccc" d="m452.27036 145.28346l55.275574 0l0 55.27559l-55.275574 0z" fill-rule="evenodd"/><path stroke="#000000" stroke-width="3.0" stroke-linejoin="round" stroke-linecap="butt" d="m452.27036 145.28346l55.275574 0l0 55.27559l-55.275574 0z" fill-rule="evenodd"/><path fill="#000000" d="m475.04572 179.84126l0 -13.359375l5.015625 0q1.53125 0 2.453125 0.40625q0.921875 0.40625 1.4375 1.25q0.53125 0.84375 0.53125 1.765625q0 0.859375 -0.46875 1.625q-0.453125 0.75 -1.390625 1.203125q1.203125 0.359375 1.859375 1.21875q0.65625 0.859375 0.65625 2.015625q0 0.9375 -0.40625 1.75q-0.390625 0.796875 -0.984375 1.234375q-0.578125 0.4375 -1.453125 0.671875q-0.875 0.21875 -2.15625 0.21875l-5.09375 0zm1.78125 -7.75l2.875 0q1.1875 0 1.6875 -0.140625q0.671875 -0.203125 1.015625 -0.671875q0.34375 -0.46875 0.34375 -1.171875q0 -0.65625 -0.328125 -1.15625q-0.3125 -0.515625 -0.90625 -0.703125q-0.59375 -0.1875 -2.03125 -0.1875l-2.65625 0l0 4.03125zm0 6.171875l3.3125 0q0.859375 0 1.203125 -0.0625q0.609375 -0.109375 1.015625 -0.359375q0.421875 -0.265625 0.6875 -0.75q0.265625 -0.484375 0.265625 -1.125q0 -0.75 -0.390625 -1.296875q-0.375 -0.546875 -1.0625 -0.765625q-0.671875 -0.234375 -1.953125 -0.234375l-3.078125 0l0 4.59375z" fill-rule="nonzero"/><path fill="#cccccc" d="m519.2493 145.28346l55.275635 0l0 55.27559l-55.275635 0z" fill-rule="evenodd"/><path stroke="#000000" stroke-width="3.0" stroke-linejoin="round" stroke-linecap="butt" d="m519.2493 145.28346l55.275635 0l0 55.27559l-55.275635 0z" fill-rule="evenodd"/><path fill="#000000" d="m551.1194 175.15376l1.765625 0.453125q-0.5625 2.171875 -2.0 3.328125q-1.4375 1.140625 -3.53125 1.140625q-2.15625 0 -3.515625 -0.875q-1.34375 -0.890625 -2.0625 -2.546875q-0.703125 -1.671875 -0.703125 -3.59375q0 -2.078125 0.796875 -3.625q0.796875 -1.5625 2.265625 -2.359375q1.484375 -0.8125 3.25 -0.8125q2.0 0 3.359375 1.015625q1.375 1.015625 1.90625 2.875l-1.734375 0.40625q-0.46875 -1.453125 -1.359375 -2.109375q-0.875 -0.671875 -2.203125 -0.671875q-1.546875 0 -2.578125 0.734375q-1.03125 0.734375 -1.453125 1.984375q-0.421875 1.234375 -0.421875 2.5625q0 1.703125 0.5 2.96875q0.5 1.265625 1.546875 1.90625q1.046875 0.625 2.265625 0.625q1.484375 0 2.515625 -0.859375q1.03125 -0.859375 1.390625 -2.546875z" fill-rule="nonzero"/><path fill="#000000" fill-opacity="0.0" d="m385.29135 209.17061l55.275574 0l0 55.27559l-55.275574 0z" fill-rule="evenodd"/><path stroke="#000000" stroke-width="3.0" stroke-linejoin="round" stroke-linecap="butt" d="m385.29135 209.17061l55.275574 0l0 55.27559l-55.275574 0z" fill-rule="evenodd"/><path fill="#009ee3" d="m385.29135 273.05774l55.275574 0l0 55.275604l-55.275574 0z" fill-rule="evenodd"/><path stroke="#000000" stroke-width="3.0" stroke-linejoin="round" stroke-linecap="butt" d="m385.29135 273.05774l55.275574 0l0 55.275604l-55.275574 0z" fill-rule="evenodd"/><path fill="#000000" fill-opacity="0.0" d="m385.29135 339.44095l55.275574 0l0 55.275574l-55.275574 0z" fill-rule="evenodd"/><path stroke="#000000" stroke-width="3.0" stroke-linejoin="round" stroke-linecap="butt" d="m385.29135 339.44095l55.275574 0l0 55.275574l-55.275574 0z" fill-rule="evenodd"/><path fill="#000000" fill-opacity="0.0" d="m452.27036 209.17061l55.275574 0l0 55.27559l-55.275574 0z" fill-rule="evenodd"/><path stroke="#000000" stroke-width="3.0" stroke-linejoin="round" stroke-linecap="butt" d="m452.27036 209.17061l55.275574 0l0 55.27559l-55.275574 0z" fill-rule="evenodd"/><path fill="#009ee3" d="m452.27036 273.05774l55.275574 0l0 55.275604l-55.275574 0z" fill-rule="evenodd"/><path stroke="#000000" stroke-width="3.0" stroke-linejoin="round" stroke-linecap="butt" d="m452.27036 273.05774l55.275574 0l0 55.275604l-55.275574 0z" fill-rule="evenodd"/><path fill="#000000" fill-opacity="0.0" d="m452.27036 339.44095l55.275574 0l0 55.275574l-55.275574 0z" fill-rule="evenodd"/><path stroke="#000000" stroke-width="3.0" stroke-linejoin="round" stroke-linecap="butt" d="m452.27036 339.44095l55.275574 0l0 55.275574l-55.275574 0z" fill-rule="evenodd"/><path fill="#000000" fill-opacity="0.0" d="m519.2493 209.79527l55.275635 0l0 55.27559l-55.275635 0z" fill-rule="evenodd"/><path stroke="#000000" stroke-width="3.0" stroke-linejoin="round" stroke-linecap="butt" d="m519.2493 209.79527l55.275635 0l0 55.27559l-55.275635 0z" fill-rule="evenodd"/><path fill="#009ee3" d="m519.2493 274.3058l55.275635 0l0 55.275574l-55.275635 0z" fill-rule="evenodd"/><path stroke="#000000" stroke-width="3.0" stroke-linejoin="round" stroke-linecap="butt" d="m519.2493 274.3058l55.275635 0l0 55.275574l-55.275635 0z" fill-rule="evenodd"/><path fill="#000000" fill-opacity="0.0" d="m519.2493 339.44095l55.275635 0l0 55.275574l-55.275635 0z" fill-rule="evenodd"/><path stroke="#000000" stroke-width="3.0" stroke-linejoin="round" stroke-linecap="butt" d="m519.2493 339.44095l55.275635 0l0 55.275574l-55.275635 0z" fill-rule="evenodd"/><path fill="#000000" fill-opacity="0.0" d="m588.96063 301.9449l73.7323 0" fill-rule="evenodd"/><path stroke="#000000" stroke-width="3.0" stroke-linejoin="round" stroke-linecap="butt" d="m588.96063 301.9449l55.7323 0" fill-rule="evenodd"/><path fill="#000000" stroke="#000000" stroke-width="3.0" stroke-linecap="butt" d="m644.69293 306.9001l13.614258 -4.9552l-13.614258 -4.9552z" fill-rule="evenodd"/><path fill="#cccccc" d="m678.2047 145.28346l55.275574 0l0 55.27559l-55.275574 0z" fill-rule="evenodd"/><path stroke="#000000" stroke-width="3.0" stroke-linejoin="round" stroke-linecap="butt" d="m678.2047 145.28346l55.275574 0l0 55.27559l-55.275574 0z" fill-rule="evenodd"/><path fill="#000000" d="m699.5895 179.84126l5.125 -13.359375l1.90625 0l5.46875 13.359375l-2.015625 0l-1.546875 -4.046875l-5.59375 0l-1.46875 4.046875l-1.875 0zm3.859375 -5.484375l4.53125 0l-1.40625 -3.703125q-0.625 -1.6875 -0.9375 -2.765625q-0.265625 1.28125 -0.71875 2.546875l-1.46875 3.921875z" fill-rule="nonzero"/><path fill="#cccccc" d="m745.1837 145.28346l55.275574 0l0 55.27559l-55.275574 0z" fill-rule="evenodd"/><path stroke="#000000" stroke-width="3.0" stroke-linejoin="round" stroke-linecap="butt" d="m745.1837 145.28346l55.275574 0l0 55.27559l-55.275574 0z" fill-rule="evenodd"/><path fill="#000000" d="m767.9591 179.84126l0 -13.359375l5.015625 0q1.53125 0 2.453125 0.40625q0.921875 0.40625 1.4375 1.25q0.53125 0.84375 0.53125 1.765625q0 0.859375 -0.46875 1.625q-0.453125 0.75 -1.390625 1.203125q1.203125 0.359375 1.859375 1.21875q0.65625 0.859375 0.65625 2.015625q0 0.9375 -0.40625 1.75q-0.390625 0.796875 -0.984375 1.234375q-0.578125 0.4375 -1.453125 0.671875q-0.875 0.21875 -2.15625 0.21875l-5.09375 0zm1.78125 -7.75l2.875 0q1.1875 0 1.6875 -0.140625q0.671875 -0.203125 1.015625 -0.671875q0.34375 -0.46875 0.34375 -1.171875q0 -0.65625 -0.328125 -1.15625q-0.3125 -0.515625 -0.90625 -0.703125q-0.59375 -0.1875 -2.03125 -0.1875l-2.65625 0l0 4.03125zm0 6.171875l3.3125 0q0.859375 0 1.203125 -0.0625q0.609375 -0.109375 1.015625 -0.359375q0.421875 -0.265625 0.6875 -0.75q0.265625 -0.484375 0.265625 -1.125q0 -0.75 -0.390625 -1.296875q-0.375 -0.546875 -1.0625 -0.765625q-0.671875 -0.234375 -1.953125 -0.234375l-3.078125 0l0 4.59375z" fill-rule="nonzero"/><path fill="#cccccc" d="m812.1627 145.28346l55.275574 0l0 55.27559l-55.275574 0z" fill-rule="evenodd"/><path stroke="#000000" stroke-width="3.0" stroke-linejoin="round" stroke-linecap="butt" d="m812.1627 145.28346l55.275574 0l0 55.27559l-55.275574 0z" fill-rule="evenodd"/><path fill="#000000" d="m844.0328 175.15376l1.765625 0.453125q-0.5625 2.171875 -2.0 3.328125q-1.4375 1.140625 -3.53125 1.140625q-2.15625 0 -3.515625 -0.875q-1.34375 -0.890625 -2.0625 -2.546875q-0.703125 -1.671875 -0.703125 -3.59375q0 -2.078125 0.796875 -3.625q0.796875 -1.5625 2.265625 -2.359375q1.484375 -0.8125 3.25 -0.8125q2.0 0 3.359375 1.015625q1.375 1.015625 1.90625 2.875l-1.734375 0.40625q-0.46875 -1.453125 -1.359375 -2.109375q-0.875 -0.671875 -2.203125 -0.671875q-1.546875 0 -2.578125 0.734375q-1.03125 0.734375 -1.453125 1.984375q-0.421875 1.234375 -0.421875 2.5625q0 1.703125 0.5 2.96875q0.5 1.265625 1.546875 1.90625q1.046875 0.625 2.265625 0.625q1.484375 0 2.515625 -0.859375q1.03125 -0.859375 1.390625 -2.546875z" fill-rule="nonzero"/><path fill="#009ee3" d="m678.2047 209.79527l55.275574 0l0 55.27559l-55.275574 0z" fill-rule="evenodd"/><path stroke="#000000" stroke-width="3.0" stroke-linejoin="round" stroke-linecap="butt" d="m678.2047 209.79527l55.275574 0l0 55.27559l-55.275574 0z" fill-rule="evenodd"/><path fill="#009ee3" d="m745.1837 209.79527l55.275574 0l0 55.27559l-55.275574 0z" fill-rule="evenodd"/><path stroke="#000000" stroke-width="3.0" stroke-linejoin="round" stroke-linecap="butt" d="m745.1837 209.79527l55.275574 0l0 55.27559l-55.275574 0z" fill-rule="evenodd"/><path fill="#009ee3" d="m812.1627 211.0433l55.275574 0l0 55.275604l-55.275574 0z" fill-rule="evenodd"/><path stroke="#000000" stroke-width="3.0" stroke-linejoin="round" stroke-linecap="butt" d="m812.1627 211.0433l55.275574 0l0 55.275604l-55.275574 0z" fill-rule="evenodd"/><path fill="#000000" fill-opacity="0.0" d="m23.622047 18.821522l416.9449 0l0 48.47244l-416.9449 0z" fill-rule="evenodd"/><path fill="#ffffff" d="m34.012672 37.799023q0 -1.828125 0.921875 -3.109375q0.9375 -1.296875 2.6875 -1.296875q1.625 0 2.6875 1.15625q1.0625 1.140625 1.0625 3.390625q0 2.171875 -1.078125 3.359375q-1.078125 1.171875 -2.640625 1.171875q-1.5625 0 -2.609375 -1.15625q-1.03125 -1.171875 -1.03125 -3.515625zm3.671875 -2.953125q-0.78125 0 -1.3125 0.6875q-0.515625 0.671875 -0.515625 2.484375q0 1.65625 0.53125 2.328125q0.53125 0.671875 1.296875 0.671875q0.796875 0 1.3125 -0.671875q0.53125 -0.6875 0.53125 -2.5q0 -1.65625 -0.53125 -2.328125q-0.53125 -0.671875 -1.3125 -0.671875zm0.015625 16.65625l9.390625 -18.109375l1.71875 0l-9.359375 18.109375l-1.75 0zm7.421875 -4.671875q0 -1.859375 0.921875 -3.140625q0.9375 -1.28125 2.703125 -1.28125q1.625 0 2.671875 1.15625q1.0625 1.15625 1.0625 3.390625q0 2.1875 -1.078125 3.375q-1.0625 1.171875 -2.640625 1.171875q-1.5625 0 -2.609375 -1.171875q-1.03125 -1.171875 -1.03125 -3.5zm3.6875 -2.96875q-0.796875 0 -1.328125 0.6875q-0.515625 0.671875 -0.515625 2.484375q0 1.640625 0.53125 2.328125q0.53125 0.671875 1.296875 0.671875q0.8125 0 1.328125 -0.671875q0.53125 -0.6875 0.53125 -2.484375q0 -1.671875 -0.53125 -2.34375q-0.53125 -0.671875 -1.3125 -0.671875zm6.5429688 -6.0625q0 -1.828125 0.921875 -3.109375q0.9375 -1.296875 2.6875 -1.296875q1.625 0 2.6875 1.15625q1.0625 1.140625 1.0625 3.390625q0 2.171875 -1.078125 3.359375q-1.078125 1.171875 -2.640625 1.171875q-1.5625 0 -2.609375 -1.15625q-1.03125 -1.171875 -1.03125 -3.515625zm3.671875 -2.953125q-0.78125 0 -1.3125 0.6875q-0.515625 0.671875 -0.515625 2.484375q0 1.65625 0.53125 2.328125q0.53125 0.671875 1.296875 0.671875q0.796875 0 1.3125 -0.671875q0.53125 -0.6875 0.53125 -2.5q0 -1.65625 -0.53125 -2.328125q-0.53125 -0.671875 -1.3125 -0.671875zm0.015625 16.65625l9.390625 -18.109375l1.71875 0l-9.359375 18.109375l-1.75 0zm7.421875 -4.671875q0 -1.859375 0.921875 -3.140625q0.9375 -1.28125 2.703125 -1.28125q1.625 0 2.671875 1.15625q1.0625 1.15625 1.0625 3.390625q0 2.1875 -1.078125 3.375q-1.0625 1.171875 -2.640625 1.171875q-1.5625 0 -2.609375 -1.171875q-1.03125 -1.171875 -1.03125 -3.5zm3.6875 -2.96875q-0.796875 0 -1.328125 0.6875q-0.515625 0.671875 -0.515625 2.484375q0 1.640625 0.53125 2.328125q0.53125 0.671875 1.296875 0.671875q0.8125 0 1.328125 -0.671875q0.53125 -0.6875 0.53125 -2.484375q0 -1.671875 -0.53125 -2.34375q-0.53125 -0.671875 -1.3125 -0.671875zm7.2460938 7.0l0 -10.8125l-1.875 0l0 -1.640625l1.875 0l0 -1.3125q0 -1.265625 0.21875 -1.875q0.296875 -0.8125 1.0625 -1.3125q0.78125 -0.515625 2.15625 -0.515625q0.890625 0 1.96875 0.203125l-0.3125 1.84375q-0.65625 -0.125 -1.25 -0.125q-0.953125 0 -1.359375 0.421875q-0.390625 0.40625 -0.390625 1.53125l0 1.140625l2.421875 0l0 1.640625l-2.421875 0l0 10.8125l-2.09375 0zm6.1679688 -14.75l0 -2.4375l2.109375 0l0 2.4375l-2.109375 0zm0 14.75l0 -12.453125l2.109375 0l0 12.453125l-2.109375 0zm5.2695312 0l0 -17.1875l2.109375 0l0 17.1875l-2.109375 0zm9.988281 -1.890625l0.3125 1.859375q-0.890625 0.203125 -1.59375 0.203125q-1.15625 0 -1.796875 -0.359375q-0.625 -0.375 -0.890625 -0.96875q-0.25 -0.59375 -0.25 -2.484375l0 -7.171875l-1.546875 0l0 -1.640625l1.546875 0l0 -3.078125l2.09375 -1.265625l0 4.34375l2.125 0l0 1.640625l-2.125 0l0 7.28125q0 0.90625 0.109375 1.171875q0.125 0.25 0.375 0.40625q0.25 0.140625 0.71875 0.140625q0.34375 0 0.921875 -0.078125zm10.589844 -2.125l2.171875 0.28125q-0.515625 1.90625 -1.90625 2.96875q-1.390625 1.046875 -3.5625 1.046875q-2.734375 0 -4.34375 -1.671875q-1.59375 -1.6875 -1.59375 -4.734375q0 -3.140625 1.609375 -4.875q1.625 -1.734375 4.203125 -1.734375q2.5 0 4.078125 1.703125q1.59375 1.703125 1.59375 4.78125q0 0.1875 -0.015625 0.5625l-9.28125 0q0.109375 2.046875 1.15625 3.140625q1.046875 1.09375 2.609375 1.09375q1.15625 0 1.96875 -0.609375q0.828125 -0.609375 1.3125 -1.953125zm-6.9375 -3.40625l6.953125 0q-0.140625 -1.5625 -0.796875 -2.359375q-1.0 -1.21875 -2.609375 -1.21875q-1.453125 0 -2.453125 0.984375q-0.984375 0.96875 -1.09375 2.59375zm11.738281 7.421875l0 -12.453125l1.890625 0l0 1.890625q0.734375 -1.328125 1.34375 -1.75q0.625 -0.421875 1.359375 -0.421875q1.0625 0 2.171875 0.6875l-0.734375 1.953125q-0.765625 -0.453125 -1.546875 -0.453125q-0.6875 0 -1.25 0.421875q-0.546875 0.40625 -0.78125 1.140625q-0.34375 1.125 -0.34375 2.46875l0 6.515625l-2.109375 0zm6.0703125 4.765625l0 -1.515625l13.984367 0l0 1.515625l-13.984367 0zm14.441399 -8.484375l2.09375 -0.328125q0.171875 1.25 0.96875 1.921875q0.8125 0.671875 2.25 0.671875q1.453125 0 2.15625 -0.59375q0.703125 -0.59375 0.703125 -1.390625q0 -0.71875 -0.625 -1.125q-0.421875 -0.28125 -2.15625 -0.71875q-2.3125 -0.578125 -3.21875 -1.0q-0.890625 -0.4375 -1.359375 -1.1875q-0.453125 -0.765625 -0.453125 -1.671875q0 -0.828125 0.375 -1.53125q0.390625 -0.71875 1.046875 -1.1875q0.484375 -0.359375 1.328125 -0.609375q0.859375 -0.265625 1.828125 -0.265625q1.46875 0 2.578125 0.421875q1.109375 0.421875 1.625 1.15625q0.53125 0.71875 0.734375 1.921875l-2.0625 0.28125q-0.140625 -0.96875 -0.8125 -1.5q-0.671875 -0.546875 -1.90625 -0.546875q-1.453125 0 -2.078125 0.484375q-0.625 0.484375 -0.625 1.125q0 0.40625 0.265625 0.734375q0.25 0.34375 0.8125 0.5625q0.3125 0.125 1.859375 0.546875q2.234375 0.59375 3.109375 0.984375q0.890625 0.375 1.390625 1.109375q0.515625 0.71875 0.515625 1.796875q0 1.046875 -0.625 1.984375q-0.609375 0.9375 -1.765625 1.453125q-1.15625 0.5 -2.625 0.5q-2.421875 0 -3.703125 -1.0q-1.265625 -1.015625 -1.625 -3.0zm20.96875 -0.84375l2.078125 0.265625q-0.34375 2.15625 -1.75 3.375q-1.390625 1.203125 -3.4375 1.203125q-2.546875 0 -4.109375 -1.671875q-1.546875 -1.671875 -1.546875 -4.78125q0 -2.015625 0.671875 -3.53125q0.671875 -1.515625 2.03125 -2.265625q1.359375 -0.765625 2.96875 -0.765625q2.03125 0 3.3125 1.03125q1.296875 1.03125 1.65625 2.90625l-2.046875 0.328125q-0.296875 -1.265625 -1.046875 -1.890625q-0.734375 -0.640625 -1.796875 -0.640625q-1.59375 0 -2.59375 1.15625q-0.984375 1.140625 -0.984375 3.609375q0 2.5 0.953125 3.640625q0.96875 1.140625 2.515625 1.140625q1.234375 0 2.0625 -0.765625q0.84375 -0.765625 1.0625 -2.34375zm3.875 4.5625l0 -17.1875l2.109375 0l0 6.171875q1.484375 -1.71875 3.734375 -1.71875q1.375 0 2.390625 0.546875q1.03125 0.546875 1.46875 1.515625q0.4375 0.953125 0.4375 2.78125l0 7.890625l-2.109375 0l0 -7.890625q0 -1.578125 -0.6875 -2.296875q-0.6875 -0.71875 -1.9375 -0.71875q-0.9375 0 -1.765625 0.484375q-0.828125 0.484375 -1.1875 1.3125q-0.34375 0.828125 -0.34375 2.296875l0 6.8125l-2.109375 0zm21.878906 -4.015625l2.171875 0.28125q-0.515625 1.90625 -1.90625 2.96875q-1.390625 1.046875 -3.5625 1.046875q-2.734375 0 -4.34375 -1.671875q-1.59375 -1.6875 -1.59375 -4.734375q0 -3.140625 1.609375 -4.875q1.625 -1.734375 4.203125 -1.734375q2.5 0 4.078125 1.703125q1.59375 1.703125 1.59375 4.78125q0 0.1875 -0.015625 0.5625l-9.28125 0q0.109375 2.046875 1.15625 3.140625q1.046875 1.09375 2.609375 1.09375q1.15625 0 1.96875 -0.609375q0.828125 -0.609375 1.3125 -1.953125zm-6.9375 -3.40625l6.953125 0q-0.140625 -1.5625 -0.796875 -2.359375q-1.0 -1.21875 -2.609375 -1.21875q-1.453125 0 -2.453125 0.984375q-0.984375 0.96875 -1.09375 2.59375zm11.753906 7.421875l0 -12.453125l1.890625 0l0 1.75q0.59375 -0.90625 1.5625 -1.46875q0.96875 -0.5625 2.21875 -0.5625q1.375 0 2.25 0.578125q0.890625 0.578125 1.265625 1.609375q1.46875 -2.1875 3.84375 -2.1875q1.84375 0 2.84375 1.03125q1.0 1.03125 1.0 3.15625l0 8.546875l-2.109375 0l0 -7.84375q0 -1.265625 -0.203125 -1.8125q-0.203125 -0.5625 -0.75 -0.90625q-0.53125 -0.34375 -1.25 -0.34375q-1.3125 0 -2.1875 0.875q-0.859375 0.875 -0.859375 2.796875l0 7.234375l-2.109375 0l0 -8.09375q0 -1.40625 -0.515625 -2.109375q-0.515625 -0.703125 -1.6875 -0.703125q-0.890625 0 -1.65625 0.46875q-0.75 0.46875 -1.09375 1.375q-0.34375 0.90625 -0.34375 2.609375l0 6.453125l-2.109375 0zm28.117188 -1.53125q-1.171875 0.984375 -2.265625 1.40625q-1.078125 0.40625 -2.3125 0.40625q-2.046875 0 -3.15625 -1.0q-1.09375 -1.0 -1.09375 -2.5625q0 -0.921875 0.40625 -1.671875q0.421875 -0.75 1.09375 -1.203125q0.671875 -0.46875 1.515625 -0.703125q0.625 -0.15625 1.875 -0.3125q2.5625 -0.3125 3.765625 -0.734375q0.015625 -0.421875 0.015625 -0.546875q0 -1.28125 -0.609375 -1.8125q-0.796875 -0.71875 -2.390625 -0.71875q-1.5 0 -2.203125 0.53125q-0.703125 0.515625 -1.046875 1.84375l-2.0625 -0.28125q0.28125 -1.328125 0.921875 -2.140625q0.640625 -0.8125 1.859375 -1.25q1.21875 -0.453125 2.828125 -0.453125q1.59375 0 2.59375 0.375q1.0 0.375 1.46875 0.953125q0.46875 0.5625 0.65625 1.4375q0.09375 0.53125 0.09375 1.9375l0 2.8125q0 2.9375 0.140625 3.71875q0.140625 0.78125 0.53125 1.5l-2.203125 0q-0.328125 -0.65625 -0.421875 -1.53125zm-0.171875 -4.71875q-1.15625 0.46875 -3.453125 0.796875q-1.296875 0.1875 -1.84375 0.421875q-0.53125 0.234375 -0.828125 0.6875q-0.28125 0.453125 -0.28125 1.0q0 0.84375 0.625 1.40625q0.640625 0.5625 1.875 0.5625q1.21875 0 2.171875 -0.53125q0.953125 -0.53125 1.390625 -1.453125q0.34375 -0.71875 0.34375 -2.109375l0 -0.78125zm5.2070312 -6.8125q0 -1.828125 0.921875 -3.109375q0.9375 -1.296875 2.6875 -1.296875q1.625 0 2.6875 1.15625q1.0625 1.140625 1.0625 3.390625q0 2.171875 -1.078125 3.359375q-1.078125 1.171875 -2.640625 1.171875q-1.5625 0 -2.609375 -1.15625q-1.03125 -1.171875 -1.03125 -3.515625zm3.671875 -2.953125q-0.78125 0 -1.3125 0.6875q-0.515625 0.671875 -0.515625 2.484375q0 1.65625 0.53125 2.328125q0.53125 0.671875 1.296875 0.671875q0.796875 0 1.3125 -0.671875q0.53125 -0.6875 0.53125 -2.5q0 -1.65625 -0.53125 -2.328125q-0.53125 -0.671875 -1.3125 -0.671875zm0.015625 16.65625l9.390625 -18.109375l1.71875 0l-9.359375 18.109375l-1.75 0zm7.421875 -4.671875q0 -1.859375 0.921875 -3.140625q0.9375 -1.28125 2.703125 -1.28125q1.625 0 2.671875 1.15625q1.0625 1.15625 1.0625 3.390625q0 2.1875 -1.078125 3.375q-1.0625 1.171875 -2.640625 1.171875q-1.5625 0 -2.609375 -1.171875q-1.03125 -1.171875 -1.03125 -3.5zm3.6875 -2.96875q-0.796875 0 -1.328125 0.6875q-0.515625 0.671875 -0.515625 2.484375q0 1.640625 0.53125 2.328125q0.53125 0.671875 1.296875 0.671875q0.8125 0 1.328125 -0.671875q0.53125 -0.6875 0.53125 -2.484375q0 -1.671875 -0.53125 -2.34375q-0.53125 -0.671875 -1.3125 -0.671875zm6.5429688 -6.0625q0 -1.828125 0.921875 -3.109375q0.9375 -1.296875 2.6875 -1.296875q1.625 0 2.6875 1.15625q1.0625 1.140625 1.0625 3.390625q0 2.171875 -1.078125 3.359375q-1.078125 1.171875 -2.640625 1.171875q-1.5625 0 -2.609375 -1.15625q-1.03125 -1.171875 -1.03125 -3.515625zm3.671875 -2.953125q-0.78125 0 -1.3125 0.6875q-0.515625 0.671875 -0.515625 2.484375q0 1.65625 0.53125 2.328125q0.53125 0.671875 1.296875 0.671875q0.796875 0 1.3125 -0.671875q0.53125 -0.6875 0.53125 -2.5q0 -1.65625 -0.53125 -2.328125q-0.53125 -0.671875 -1.3125 -0.671875zm0.015625 16.65625l9.390625 -18.109375l1.71875 0l-9.359375 18.109375l-1.75 0zm7.421875 -4.671875q0 -1.859375 0.921875 -3.140625q0.9375 -1.28125 2.703125 -1.28125q1.625 0 2.671875 1.15625q1.0625 1.15625 1.0625 3.390625q0 2.1875 -1.078125 3.375q-1.0625 1.171875 -2.640625 1.171875q-1.5625 0 -2.609375 -1.171875q-1.03125 -1.171875 -1.03125 -3.5zm3.6875 -2.96875q-0.796875 0 -1.328125 0.6875q-0.515625 0.671875 -0.515625 2.484375q0 1.640625 0.53125 2.328125q0.53125 0.671875 1.296875 0.671875q0.8125 0 1.328125 -0.671875q0.53125 -0.6875 0.53125 -2.484375q0 -1.671875 -0.53125 -2.34375q-0.53125 -0.671875 -1.3125 -0.671875zm13.1328125 -0.515625l0 -1.96875l11.375 -4.796875l0 2.09375l-9.015625 3.703125l9.015625 3.734375l0 2.09375l-11.375 -4.859375zm14.015625 0l0 -1.96875l11.375 -4.796875l0 2.09375l-9.015625 3.703125l9.015625 3.734375l0 2.09375l-11.375 -4.859375zm13.4375 3.796875l2.09375 -0.328125q0.171875 1.25 0.96875 1.921875q0.8125 0.671875 2.25 0.671875q1.453125 0 2.15625 -0.59375q0.703125 -0.59375 0.703125 -1.390625q0 -0.71875 -0.625 -1.125q-0.421875 -0.28125 -2.15625 -0.71875q-2.3125 -0.578125 -3.21875 -1.0q-0.890625 -0.4375 -1.359375 -1.1875q-0.453125 -0.765625 -0.453125 -1.671875q0 -0.828125 0.375 -1.53125q0.390625 -0.71875 1.046875 -1.1875q0.484375 -0.359375 1.328125 -0.609375q0.859375 -0.265625 1.828125 -0.265625q1.46875 0 2.578125 0.421875q1.109375 0.421875 1.625 1.15625q0.53125 0.71875 0.734375 1.921875l-2.0625 0.28125q-0.140625 -0.96875 -0.8125 -1.5q-0.671875 -0.546875 -1.90625 -0.546875q-1.453125 0 -2.078125 0.484375q-0.625 0.484375 -0.625 1.125q0 0.40625 0.265625 0.734375q0.25 0.34375 0.8125 0.5625q0.3125 0.125 1.859375 0.546875q2.234375 0.59375 3.109375 0.984375q0.890625 0.375 1.390625 1.109375q0.515625 0.71875 0.515625 1.796875q0 1.046875 -0.625 1.984375q-0.609375 0.9375 -1.765625 1.453125q-1.15625 0.5 -2.625 0.5q-2.421875 0 -3.703125 -1.0q-1.265625 -1.015625 -1.625 -3.0zm12.859375 3.71875l0 -17.1875l2.109375 0l0 9.796875l5.0 -5.0625l2.71875 0l-4.75 4.625l5.234375 7.828125l-2.59375 0l-4.125 -6.359375l-1.484375 1.421875l0 4.9375l-2.109375 0zm12.0 -14.75l0 -2.4375l2.109375 0l0 2.4375l-2.109375 0zm0 14.75l0 -12.453125l2.109375 0l0 12.453125l-2.109375 0zm5.3164062 4.765625l0 -17.21875l1.921875 0l0 1.625q0.6875 -0.953125 1.53125 -1.421875q0.859375 -0.484375 2.078125 -0.484375q1.59375 0 2.8125 0.828125q1.21875 0.8125 1.84375 2.3125q0.625 1.5 0.625 3.28125q0 1.90625 -0.6875 3.4375q-0.6875 1.53125 -2.0 2.34375q-1.296875 0.8125 -2.734375 0.8125q-1.0625 0 -1.90625 -0.4375q-0.828125 -0.453125 -1.375 -1.140625l0 6.0625l-2.109375 0zm1.921875 -10.921875q0 2.40625 0.96875 3.5625q0.96875 1.140625 2.359375 1.140625q1.40625 0 2.40625 -1.1875q1.0 -1.1875 1.0 -3.6875q0 -2.375 -0.984375 -3.5625q-0.96875 -1.1875 -2.328125 -1.1875q-1.359375 0 -2.390625 1.265625q-1.03125 1.25 -1.03125 3.65625zm22.535156 -1.359375l-11.375 4.859375l0 -2.09375l9.015625 -3.734375l-9.015625 -3.703125l0 -2.09375l11.375 4.796875l0 1.96875zm14.015625 0l-11.375 4.859375l0 -2.09375l9.015625 -3.734375l-9.015625 -3.703125l0 -2.09375l11.375 4.796875l0 1.96875z" fill-rule="nonzero"/></g></svg>
