<?xml version="1.0" standalone="no"?>
<!DOCTYPE svg PUBLIC "-//W3C//DTD SVG 1.1//EN" "http://www.w3.org/Graphics/SVG/1.1/DTD/svg11.dtd">
<svg version="1.1" xmlns="http://www.w3.org/2000/svg" viewBox="0 0 991.70570215251 417.12774654044256" width="2975.11710645753" height="1251.3832396213277"><!-- svg-source:excalidraw --><metadata></metadata><defs><clipPath id="ksUMD8tP23Zdz5xp-A6Ml"><rect transform="translate(0 0) rotate(0 495.852851076255 208.56387327022128)" width="991.70570215251" height="417.1277465404425"></rect></clipPath><style class="style-fonts">
      </style></defs><g clip-path="url(#ksUMD8tP23Zdz5xp-A6Ml)"><g stroke-linecap="round" transform="translate(74.756125599352 35.495323794111755) rotate(0 421.6478992013493 28.109859946756615)"><path d="M0.72 1.55 L843.85 1.41 L844.89 55.5 L-1.9 56.66" stroke="none" stroke-width="0" fill="#e9ecef"></path><path d="M0 0 C197.1 -0.29, 396.08 -0.08, 843.3 0 M0 0 C332.37 -2.65, 664.91 -2.29, 843.3 0 M843.3 0 C842.87 11.59, 844.98 22.04, 843.3 56.22 M843.3 0 C842.86 21.13, 844.52 41.96, 843.3 56.22 M843.3 56.22 C509.94 57.88, 174.62 56.85, 0 56.22 M843.3 56.22 C548.98 56.88, 254.28 56.48, 0 56.22 M0 56.22 C-1.69 34.73, -0.66 14.86, 0 0 M0 56.22 C-1.1 38.16, 0.43 20.47, 0 0" stroke="#000000" stroke-width="2" fill="none"></path></g></g><g clip-path="url(#ksUMD8tP23Zdz5xp-A6Ml)"><g stroke-linecap="round" transform="translate(75.85847304824443 36.59767124300424) rotate(0 419.44320430356447 169.76150712943218)"><path d="M0 0 C240.82 0.88, 483.49 1.16, 838.89 0 M0 0 C323.29 -0.2, 646.56 -0.11, 838.89 0 M838.89 0 C838.58 67.25, 839.66 136.17, 838.89 339.52 M838.89 0 C840.69 109.49, 840.29 217.87, 838.89 339.52 M838.89 339.52 C618.15 339.46, 395.35 338.93, 0 339.52 M838.89 339.52 C511.73 341, 184.45 340.99, 0 339.52 M0 339.52 C1.11 204.44, 0.7 67.46, 0 0 M0 339.52 C1.6 236.5, 1.21 133.84, 0 0" stroke="#000000" stroke-width="2" fill="none"></path></g></g><g clip-path="url(#ksUMD8tP23Zdz5xp-A6Ml)"><g stroke-linecap="round"><g transform="translate(75.85847304824443 89.51034878984024) rotate(0 420.54555175245684 -0.3887356424979771)"><path d="M0 0 C174.92 -1.27, 348.56 -1.78, 841.09 0 M0 0 C228.5 0.71, 456.39 0.23, 841.09 0" stroke="#000000" stroke-width="2" fill="none"></path></g></g><mask></mask></g><g clip-path="url(#ksUMD8tP23Zdz5xp-A6Ml)"><g stroke-linecap="round"><g transform="translate(234.59650568875236 37.70001869189673) rotate(0 -0.8991867089644359 169.21033340498593)"><path d="M0 0 C-1.26 89.35, -3.32 178.77, 0 338.42 M0 0 C-1.54 85.4, -2.62 170.09, 0 338.42" stroke="#000000" stroke-width="2" fill="none"></path></g></g><mask></mask></g><g clip-path="url(#ksUMD8tP23Zdz5xp-A6Ml)"><g stroke-linecap="round"><g transform="translate(408.3165543567785 38.80236614078922) rotate(0 -0.73207681154787 168.10798595609344)"><path d="M0 0 C-2.42 112.3, -1.21 226.99, 0 336.22 M0 0 C-1.74 75.96, -2.16 153.01, 0 336.22" stroke="#000000" stroke-width="2" fill="none"></path></g></g><mask></mask></g><g clip-path="url(#ksUMD8tP23Zdz5xp-A6Ml)"><g stroke-linecap="round"><g transform="translate(582.4039260287068 37.70001869189673) rotate(0 -0.4435722239471147 169.76150712943218)"><path d="M0 0 C0.56 113.11, 1.81 225.08, 0 339.52 M0 0 C-2.39 114.13, -2.5 227.88, 0 339.52" stroke="#000000" stroke-width="2" fill="none"></path></g></g><mask></mask></g><g clip-path="url(#ksUMD8tP23Zdz5xp-A6Ml)"><g stroke-linecap="round"><g transform="translate(756.0068490148653 37.70001869189673) rotate(0 0.48496975921534613 169.76150712943218)"><path d="M0 0 C-0.66 109.61, -0.39 217.01, 0 339.52 M0 0 C2.07 124.34, 1.57 247.1, 0 339.52" stroke="#000000" stroke-width="2" fill="none"></path></g></g><mask></mask></g><g clip-path="url(#ksUMD8tP23Zdz5xp-A6Ml)"><g stroke-linecap="round"><g transform="translate(78.0631679460293 133.60424674553724) rotate(0 418.3408568546721 1.0961415982891367)"><path d="M0 0 C171.06 0.29, 342.25 0.34, 836.68 0 M0 0 C229.35 2.79, 457.85 3.06, 836.68 0" stroke="#000000" stroke-width="1" fill="none"></path></g></g><mask></mask></g><g clip-path="url(#ksUMD8tP23Zdz5xp-A6Ml)"><g stroke-linecap="round"><g transform="translate(78.61434167047548 183.05733200362852) rotate(0 418.34085685467204 -0.605862385822661)"><path d="M0 0 C274.43 2.14, 549.6 1.32, 836.68 0 M0 0 C329.68 -3.55, 659 -3.19, 836.68 0" stroke="#000000" stroke-width="1" fill="none"></path></g></g><mask></mask></g><g clip-path="url(#ksUMD8tP23Zdz5xp-A6Ml)"><g stroke-linecap="round"><g transform="translate(77.51199422158288 232.59675959564015) rotate(0 418.3408568546721 0.8306336242405905)"><path d="M0 0 C223.38 -0.58, 447.24 0.43, 836.68 0 M0 0 C333.6 2.74, 666.86 2.17, 836.68 0" stroke="#000000" stroke-width="1" fill="none"></path></g></g><mask></mask></g><g clip-path="url(#ksUMD8tP23Zdz5xp-A6Ml)"><g stroke-linecap="round"><g transform="translate(78.61434167047548 282.15731699932803) rotate(0 418.34085685467204 0.27732791757046016)"><path d="M0 0 C268.22 2.09, 536.43 1.44, 836.68 0 M0 0 C169.53 -1.06, 339.03 -1.02, 836.68 0" stroke="#000000" stroke-width="2" fill="none"></path></g></g><mask></mask></g><g clip-path="url(#ksUMD8tP23Zdz5xp-A6Ml)"><g stroke-linecap="round"><g transform="translate(78.61434167047526 329.3256075853169) rotate(0 418.34085685467215 1.001110758917548)"><path d="M0 0 C277.9 0.22, 556.8 1.39, 836.68 0 M0 0 C170.63 2.36, 341.3 2.96, 836.68 0" stroke="#000000" stroke-width="1" fill="none"></path></g></g><mask></mask></g></svg>